<svg aria-hidden="true" style="width:0;height:0;position:absolute;overflow:hidden" xmlns="http://www.w3.org/2000/svg"><defs><symbol id="icon-arrow-right2" viewBox="0 0 32 32"><path d="m19.414 27.414 10-10a2 2 0 0 0 0-2.828l-10-10a2 2 0 1 0-2.828 2.828L23.172 14H4a2 2 0 1 0 0 4h19.172l-6.586 6.586c-.39.39-.586.902-.586 1.414s.195 1.024.586 1.414a2 2 0 0 0 2.828 0z"/><svg aria-hidden="true" style="width:0;height:0;position:absolute" xmlns="http://www.w3.org/2000/svg" overflow="hidden"><defs><symbol id="contact"><path d="M6 6a3 3 0 1 0 0-6 3 3 0 1 0 0 6Zm0 1.5c-2.002 0-6 1.005-6 3v.75c0 .412.338.75.75.75h10.5c.412 0 .75-.338.75-.75v-.75c0-1.995-3.998-3-6-3Z"/></symbol><symbol id="phone"><path d="m13.996 11.123-1.838-.21a1.441 1.441 0 0 0-1.187.412l-1.332 1.332a10.888 10.888 0 0 1-4.769-4.77L6.21 6.55a1.44 1.44 0 0 0 .412-1.187l-.21-1.824a1.448 1.448 0 0 0-1.44-1.28H3.72c-.818 0-1.498.68-1.448 1.498.384 6.18 5.327 11.115 11.5 11.499.817.05 1.498-.63 1.498-1.448v-1.252a1.434 1.434 0 0 0-1.274-1.432Z"/></symbol><symbol id="mail"><path d="M14 0H2C1.175 0 .507.675.507 1.5l-.007 9c0 .825.675 1.5 1.5 1.5h12c.825 0 1.5-.675 1.5-1.5v-9C15.5.675 14.825 0 14 0Zm-.3 3.188L8.398 6.502a.759.759 0 0 1-.795 0L2.3 3.187a.637.637 0 1 1 .675-1.08L8 5.25l5.025-3.143a.637.637 0 1 1 .675 1.08Z"/></symbol><symbol id="check"><rect width="16" height="15" rx="2"/><path d="m3.957 7.752-.069-.066-.069.065-.888.842-.076.072.076.073 3.496 3.334.069.066.069-.066 7.504-7.158.076-.073-.076-.072-.882-.841-.069-.066-.069.066-6.553 6.246-2.539-2.422Z" fill="#fff" stroke="#fff" stroke-width=".2"/></symbol></defs></svg><svg aria-hidden="true" style="width:0;height:0;position:absolute;overflow:hidden" xmlns="http://www.w3.org/2000/svg" xmlns:xlink="http://www.w3.org/1999/xlink"><defs><symbol id="icon-arrow-right" viewBox="0 0 32 32"><path fill="#c7133e" style="fill:var(--color7,#c7133e)" d="M32 16a2 2 0 1 1-3.999.001A2 2 0 0 1 32 16z"/></symbol><symbol id="icon-arrow-white" viewBox="0 0 32 32"><path fill="none" stroke="#fff" style="stroke:var(--color1,#fff)" stroke-linejoin="round" stroke-linecap="round" stroke-width="6.4" d="M8.373 3.2 22.542 16 8.373 28.8"/></symbol><symbol id="icon-hrdots" viewBox="0 0 32 32"><path fill="#d9d9d9" style="fill:var(--color2,#d9d9d9)" d="M18.667 16a2.667 2.667 0 1 1-5.334 0 2.667 2.667 0 0 1 5.334 0z"/><path fill="#d31342" style="fill:var(--color3,#d31342)" d="M5.267 16.128a.226.226 0 0 0-.021-.339l-2.384-1.945a.315.315 0 0 0-.388.004L.082 15.893a.225.225 0 0 0-.011.339l.06.058c.099.097.26.108.359.026l.179-.149v2.186c0 .134.117.243.26.243h.932c.144 0 .26-.109.26-.243v-1.529H3.31v1.529a.237.237 0 0 0 .244.243h.988c.144 0 .26-.109.26-.243v-2.155l.11.09c.061.05.189.01.285-.089l.068-.069z"/><path fill="#d9d9d9" style="fill:var(--color2,#d9d9d9)" d="M32 16a2.667 2.667 0 1 1-5.334 0A2.667 2.667 0 0 1 32 16z"/></symbol></defs></svg></symbol><symbol id="icon-qm" viewBox="0 0 32 32"><path fill="#e1e1e1" style="fill:var(--color4,#e1e1e1)" d="M23.714 4.148c1.429 0 2.778.385 4.048 1.156s2.302 1.879 3.095 3.324C31.619 10.073 32 11.776 32 13.735s-.476 3.87-1.429 5.733c-.317.674-.889 1.542-1.714 2.602a46.992 46.992 0 0 1-2.381 2.746l-3 3.035-2.143-3.565a16.303 16.303 0 0 0 3.952-3.469c1.143-1.349 1.714-2.586 1.714-3.71 0-.578-.127-1.044-.381-1.397a6.191 6.191 0 0 1-3.714 1.204c-.984 0-1.921-.305-2.81-.915a6.333 6.333 0 0 1-2.19-2.313c-.571-.931-.857-1.895-.857-2.891 0-1.124.333-2.2 1-3.228a7.568 7.568 0 0 1 2.524-2.505c1.016-.61 2.063-.915 3.143-.915zm-17.095 0c1.429 0 2.778.385 4.048 1.156s2.302 1.879 3.095 3.324c.762 1.445 1.143 3.148 1.143 5.107 0 1.381-.175 2.618-.524 3.71-.349 1.124-.952 2.297-1.81 3.517-.825 1.156-1.603 2.12-2.333 2.891-.73.803-2 2.136-3.81 3.999l-2.143-3.565a16.303 16.303 0 0 0 3.952-3.469c1.143-1.349 1.714-2.586 1.714-3.71 0-.578-.127-1.044-.381-1.397a6.191 6.191 0 0 1-3.714 1.204c-.984 0-1.921-.305-2.81-.915a6.333 6.333 0 0 1-2.19-2.313c-.571-.931-.857-1.895-.857-2.891 0-1.124.317-2.2.952-3.228s1.476-1.863 2.524-2.505c1.016-.61 2.063-.915 3.143-.915z"/></symbol><symbol id="icon-icon-heart" viewBox="0 0 32 32"><path fill="#ffa5ba" style="fill:var(--color5,#ffa5ba);stroke:var(--color5,#ffa5ba)" stroke="#ffa5ba" stroke-width=".308" d="M2.513 11.16c.587 2.696 1.894 5.088 3.953 7.163 1.839 1.86 3.455 2.99 6.008 4.163h.001l1.238.581v8.47h1.73v-7.901l.159.047c.229.066.567.066.796 0h.001l.159-.046v7.901h1.73v-8.481l1.179-.536c2.469-1.138 4.263-2.372 6.008-4.141 2.786-2.829 4.217-6.052 4.217-9.561.012-3.851-2.01-7-5.213-8.076-.689-.24-1.054-.274-2.316-.262M2.513 11.16l13.614-8.305-.098-.072M2.513 11.16c-.134-.615-.202-1.454-.205-2.276-.003-.82.059-1.636.194-2.201.723-3.189 2.943-5.549 5.82-6.152M2.513 11.16 8.321.531M22.163.482zm0 0c-.658.006-1.07.02-1.444.074-.376.054-.709.146-1.208.303h-.002c-1.188.385-2.356.994-3.133 1.632l-.001.001-.346.291m0 0-.543-.401C13.814 1.152 12.101.553 10.09.471h-.001A15.571 15.571 0 0 0 9.053.47c-.312.01-.586.03-.733.063m7.709 2.25L8.321.532m6.684 3.701c-.238-.226-.669-.537-1.14-.832a9.827 9.827 0 0 0-1.336-.718 10.047 10.047 0 0 0-1.5-.419c-1.975-.362-3.49.022-4.825 1.21l-.001.001a6.666 6.666 0 0 0-.795.844 3.015 3.015 0 0 0-.232.33l.243.044c.238.042.56.096.909.154 1.231.192 2.186.449 3.209.942 1.02.492 2.103 1.215 3.592 2.33l.001.001c.605.464 1.625 1.059 2.651 1.541l.003.001c.458.226.898.452 1.238.636.17.092.316.175.427.242.055.034.104.064.142.091a.608.608 0 0 1 .098.08c.128.137.234.274.318.447s.141.372.182.631c.081.512.098 1.281.098 2.571 0 1.17.003 1.784.034 2.135.015.175.036.271.061.332a.362.362 0 0 0 .096.135c.246.24.583.23.762.031l.004-.004c.05-.052.097-.135.125-.456.027-.32.033-.837.033-1.723 0-1.173.029-1.886.159-2.378a1.75 1.75 0 0 1 .292-.622 2.34 2.34 0 0 1 .488-.459l.002-.001a1.77 1.77 0 0 1 .647-.308c.27-.071.643-.124 1.24-.193h.001c1.864-.207 2.941-.447 4.23-.937.405-.154.704-.268.927-.371.225-.103.357-.188.439-.273a.501.501 0 0 0 .134-.302c.02-.142.014-.324.002-.588v-.003a8.836 8.836 0 0 0-.256-1.707v-.001c-.709-2.681-2.921-4.56-5.316-4.56-1.787 0-3.967.84-5.314 2.061l-.001.001c-.22.197-.405.352-.572.459s-.327.175-.495.182a.843.843 0 0 1-.486-.149 3.572 3.572 0 0 1-.517-.425zm-9.972.388L5.03 4.62l.003.001zm5.826 3.976-.001-.001c-1.232-.914-2.577-1.584-3.762-1.879a14.269 14.269 0 0 0-1.803-.295 6.97 6.97 0 0 0-.715-.04 1.234 1.234 0 0 0-.224.019 2.17 2.17 0 0 0-.148.496 8.7 8.7 0 0 0-.127.893c-.063.665-.077 1.407-.019 1.947.316 2.926 1.588 5.398 4.032 7.743h.001c1.927 1.865 4.325 3.319 7.043 4.235l.002.001.862.305.874-.306c2.542-.871 5.036-2.326 6.844-4.018 1.246-1.168 1.889-1.964 2.711-3.37l.001-.001c.254-.428.603-1.203.874-1.892.135-.344.248-.661.32-.899a2.99 2.99 0 0 0 .058-.218 13.238 13.238 0 0 0-.912.3h-.001c-1.188.432-2.967.816-4.402.944h-.001l-.063.005c-.323.027-.548.045-.715.089-.166.044-.252.106-.311.216-.067.126-.107.328-.127.676-.018.322-.018.746-.018 1.313v.121c0 1.098-.014 1.745-.096 2.184a1.768 1.768 0 0 1-.189.553 1.974 1.974 0 0 1-.328.417c-.235.247-.47.425-.733.54s-.547.164-.871.164c-.5 0-.927-.099-1.284-.317s-.63-.547-.835-.983c-.105-.223-.164-.436-.198-.864-.033-.423-.042-1.067-.042-2.156 0-.906-.009-1.537-.031-1.957a4.775 4.775 0 0 0-.042-.47.995.995 0 0 0-.035-.144c-.001-.001-.007-.008-.023-.02s-.039-.029-.068-.048a3.193 3.193 0 0 0-.225-.13 8.752 8.752 0 0 0-.654-.31c-1.006-.42-2.333-1.164-3.138-1.761-.296-.219-.959-.703-1.48-1.084l-.001-.001zm-6.523-2.19c-.002.001-.002.001 0 0zm.037-.038-.001.002.001-.002z"/></symbol><symbol id="icon-icon-apples" viewBox="0 0 32 32"><path fill="#ffa5ba" style="fill:var(--color5,#ffa5ba)" d="M29.626 21.411c-1.292-.458-2.382-.344-3.242.018.145-.877.47-1.832 1.17-2.481a1.065 1.065 0 0 0-1.449-1.561c-1.229 1.14-1.706 2.748-1.874 4.081a4.036 4.036 0 0 0-1.058-.311l1.89-9.83a1.065 1.065 0 0 0-1.046-1.266h-.204c.094-.5.141-.997.137-1.47-.016-1.994-.903-3.495-2.374-4.017-1.41-.5-2.59-.35-3.507.066.145-.976.494-2.063 1.282-2.794A1.065 1.065 0 0 0 17.902.285c-1.32 1.225-1.815 2.965-1.982 4.386-.735-.348-1.644-.527-2.708-.33-1.094-1.571-2.613-2.296-4.089-1.942-1.451.349-2.358 1.115-2.901 1.962-.41-.899-.712-2.001-.452-3.036A1.065 1.065 0 0 0 3.705.806c-.439 1.746.095 3.476.729 4.758-1.016.137-2.117.65-3.049 1.866-.578.755-.773 1.698-.596 2.7a1.065 1.065 0 0 0-.674 1.197l3.809 19.809c.096.501.535.864 1.046.864h15.237c.511 0 .949-.362 1.046-.864l.038-.195c.287.198.596.363.927.487 1.266.471 2.447.278 3.044.118.316.085.795.179 1.364.179.506 0 1.084-.075 1.68-.297 2.36-.879 3.615-3.839 3.596-6.178-.015-1.904-.866-3.339-2.276-3.839zm-6.952-9.221c-.49 4.705-4.452 7.91-9.971 7.91s-9.481-3.204-9.971-7.91h19.942zm-6.642-4.675a1.047 1.047 0 0 0 1.86 0c.029-.048.29-.466.769-.777.629-.408 1.35-.46 2.203-.157.851.302.952 1.518.956 2.027.004.463-.064.962-.191 1.453h-7.126c.236-1.19.094-2.492-.289-3.669a2.12 2.12 0 0 1 1.047.346c.479.311.74.729.769.777zM3.077 8.724c.55-.719 1.182-1.068 1.932-1.069h.002c.57 0 1.016.208 1.066.232a1.05 1.05 0 0 0 1.079-.037c.331-.211.51-.592.481-.983-.006-.077-.116-1.893 1.983-2.397.876-.211 1.625.754 1.906 1.178.807 1.22 1.221 3.108.777 4.413H2.954c-.141-.443-.179-.943.122-1.336zM5.851 29.87 3.74 18.892c.138.133.281.263.427.389 2.208 1.901 5.239 2.948 8.535 2.948s6.328-1.047 8.535-2.948c.052-.044.102-.09.152-.135l-.431 2.243c-.02.007-.041.013-.061.021-1.41.5-2.261 1.935-2.276 3.839-.009 1.164.297 2.483.898 3.622l-.192.999H5.85zm21.711-.438c-.943.351-1.881.017-1.916.005a1.04 1.04 0 0 0-.768 0c-.009.004-.96.352-1.917-.005-1.338-.498-2.223-2.556-2.21-4.165.004-.466.095-1.578.858-1.849.349-.124.661-.175.939-.175 1.108 0 1.657.812 1.782 1.024a1.047 1.047 0 0 0 1.862 0c.156-.265.977-1.468 2.721-.849.763.271.854 1.383.858 1.849.013 1.609-.872 3.667-2.21 4.166z"/></symbol><symbol id="icon-icon-milk" viewBox="0 0 32 32"><path fill="#ffa5ba" style="fill:var(--color5,#ffa5ba)" d="M7.773.144c-.35.188-.553.563-.553 1.006.006.813.209 1.556.614 2.2l.178.294-.338.381c-.381.425-.473.581-.645 1.088-.141.412-.154 1.162-.031 1.581.43 1.438 1.854 2.269 3.248 1.9.473-.125.761-.281 1.203-.656l.374-.312.35.175c.196.1.528.244.743.325l.381.138v.7c0 1.106.227 1.762.81 2.356s1.498.9 2.29.762c.565-.1 1.117-.381 1.492-.762.583-.594.81-1.25.81-2.356v-.7l.387-.138c.209-.081.54-.225.737-.325l.35-.175.375.312c.442.375.731.531 1.203.656 1.394.369 2.818-.462 3.248-1.9.123-.419.111-1.169-.031-1.581-.172-.506-.264-.662-.645-1.088l-.338-.381.178-.294c.405-.644.608-1.387.614-2.2 0-.444-.203-.819-.553-1.006L23.96 0H8.034L7.77.144zM22.508 2.1c0 .019-.178.313-.399.663-.651 1.031-.626 1.256.239 2.169.313.331.602.662.645.737.233.463-.233 1.038-.749.919-.123-.025-.393-.244-.786-.631-.786-.775-1.056-.862-1.658-.519-.694.4-1.578.806-2.008.925-.608.175-.817.306-.976.638-.129.256-.141.362-.141 1.362 0 1.231-.049 1.431-.399 1.6-.252.125-.301.125-.553 0-.35-.169-.399-.369-.399-1.6 0-1-.012-1.106-.135-1.362-.166-.325-.375-.463-.982-.638-.528-.15-1.308-.494-1.738-.775-.405-.263-.761-.362-1.044-.313-.184.037-.368.181-.86.662-.405.394-.694.625-.817.65-.51.119-.976-.463-.743-.919.043-.075.332-.406.645-.737.866-.912.89-1.138.239-2.169-.221-.35-.399-.644-.399-.663 0-.025 2.929-.038 6.508-.038s6.508.013 6.508.038zM5.925 13.206c-.313.212-.485.512-.485.844 0 .225 3.119 16.925 3.229 17.275.055.194.282.425.522.55C9.418 32 9.578 32 16 32s6.582 0 6.809-.125c.239-.125.467-.356.522-.55.11-.35 3.229-17.05 3.229-17.275 0-.331-.172-.631-.485-.844l-.209-.144H6.134l-.209.144zm18.21 2.275c-.061.5-.418 1.587-.682 2.081-1.283 2.375-3.714 3.819-6.729 3.988-2.278.131-4.206-.331-5.82-1.394a7 7 0 0 1-2.265-2.438c-.307-.544-.712-1.712-.774-2.237l-.043-.356h16.356l-.043.356zM9.83 21.919c2.634 1.775 6.569 2.244 9.885 1.169a10.688 10.688 0 0 0 3.18-1.688c.276-.219.295-.219.264-.081-.018.081-.381 1.994-.804 4.244s-.78 4.156-.798 4.231l-.031.144H10.475l-.031-.144c-.018-.075-.374-1.981-.798-4.231s-.786-4.163-.804-4.244c-.031-.137-.012-.137.264.081.16.125.491.356.724.519z"/></symbol><symbol id="icon-points-white" viewBox="0 0 32 32"><path fill="#fff" style="fill:var(--color1,#fff)" d="M19.563 16c0 2.121-1.642 3.84-3.668 3.84s-3.668-1.719-3.668-3.84c0-2.121 1.642-3.84 3.668-3.84s3.668 1.719 3.668 3.84zM7.336 16c0 2.121-1.642 3.84-3.668 3.84S0 18.121 0 16c0-2.121 1.642-3.84 3.668-3.84S7.336 13.879 7.336 16zM31.79 16c0 2.121-1.642 3.84-3.668 3.84s-3.668-1.719-3.668-3.84c0-2.121 1.642-3.84 3.668-3.84S31.79 13.879 31.79 16z"/></symbol><symbol id="icon-arrow1" viewBox="0 0 32 32"><path fill="none" stroke="#d41443" style="stroke:var(--color6,#d41443)" stroke-linejoin="round" stroke-linecap="round" stroke-width="6.4" d="M9.6 3.2 22.4 16 9.6 28.8"/><path fill="none" stroke-linejoin="round" stroke-linecap="round" stroke-width="6.4" d="M9.6 3.2 22.4 16 9.6 28.8"/><path fill="none" stroke="#d41443" style="stroke:var(--color6,#d41443)" stroke-linejoin="round" stroke-linecap="round" stroke-width="6.4" d="M9.6 3.2 22.4 16 9.6 28.8"/></symbol><symbol id="icon-points" viewBox="0 0 32 32"><path fill="#c7133e" style="fill:var(--color7,#c7133e)" d="M18 16a2 2 0 1 1-3.999.001A2 2 0 0 1 18 16zM4 16a2 2 0 1 1-3.999.001A2 2 0 0 1 4 16zM32 16a2 2 0 1 1-3.999.001A2 2 0 0 1 32 16z"/></symbol><symbol id="icon-facebook" viewBox="0 0 16 32"><path fill="#fff" style="fill:var(--color1,#fff)" d="M14.143 15.971H10.11v14.865H3.998V15.971H1.092v-5.222h2.906V7.367c0-2.417 1.142-6.204 6.167-6.204l4.527.019v5.072h-3.284c-.538 0-1.297.272-1.297 1.425v3.073h4.567l-.534 5.219z"/></symbol><symbol id="icon-github" viewBox="0 0 32 32"><path fill="#fff" style="fill:var(--color1,#fff)" d="M16 0C7.211 0 0 7.211 0 16c0 7.499 5.262 14.312 12.25 16v-5.293a3.921 3.921 0 0 1-2.062-.06l.028.007c-.946-.278-1.714-.909-2.285-1.869-.363-.613-1.008-1.28-1.68-1.23l-.165-1.867c1.454-.125 2.71.886 3.456 2.139.333.558.715.885 1.205 1.029.472.141.981.074 1.573-.136.149-1.186.693-1.629 1.104-2.256-4.168-.621-5.829-2.832-6.488-4.576-.874-2.318-.405-5.213 1.139-7.043.03-.035.085-.128.064-.192-.709-2.141.154-3.91.186-4.098.818.24.95-.243 3.552 1.336l.448.27c.189.112.128.048.317.032a13.246 13.246 0 0 1 3.349-.469h.01c1.136.014 2.272.176 3.403.483l.146.016c-.013-.003.04-.01.128-.062 3.248-1.968 3.131-1.325 4.003-1.608.032.189.882 1.987.182 4.099-.096.291 2.816 2.957 1.202 7.235-.659 1.744-2.32 3.957-6.486 4.578.534.816 1.176 1.248 1.173 2.928v6.606c6.986-1.688 12.25-8.501 12.25-16 0-8.789-7.211-16-16-16z"/></symbol><symbol id="icon-telegram" viewBox="0 0 44 32"><path fill="#fff" style="fill:var(--color1,#fff)" d="m17.344 21.048-.676 8.86c.966 0 1.384-.388 1.886-.852l4.526-4.04 9.38 6.414c1.722.894 2.934.422 3.4-1.478L42.016 3.02c.548-2.374-.92-3.302-2.594-2.72L3.228 13.234c-2.47.896-2.434 2.18-.42 2.766l9.252 2.684L33.552 6.132c1.012-.626 1.932-.28 1.176.346l-17.386 14.57z"/></symbol><symbol id="icon-right" viewBox="0 0 22 32"><path fill="none" stroke="#d41443" style="stroke:var(--color1,#d41443)" stroke-linejoin="round" stroke-linecap="round" stroke-width="6.4" d="M5.04 3.2 18.266 16 5.04 28.8"/></symbol><symbol id="icon-hrdots-center" viewBox="0 0 192 32"><path fill="#d9d9d9" style="fill:var(--color1,#d9d9d9)" d="M32 16c0 8.837-7.163 16-16 16S0 24.837 0 16 7.163 0 16 0s16 7.163 16 16z"/><path fill="#d31342" style="fill:var(--color2,#d31342)" d="M111.467 16.8c.533-.533.533-1.6 0-2.133l-14.4-11.733c-.533-.533-1.6-.533-2.4 0l-14.4 12.267c-.533.533-.533 1.333 0 2.133l.267.267c.533.533 1.6.533 2.133.267l1.067-.8v13.067c0 .8.8 1.333 1.6 1.333h5.6c.8 0 1.6-.533 1.6-1.333v-9.333h7.2v9.067c0 .8.533 1.333 1.333 1.333h5.867c.8 0 1.6-.533 1.6-1.333v-12.8l.533.533c.266.266 1.067 0 1.6-.533l.8-.267z"/><path fill="#d9d9d9" style="fill:var(--color1,#d9d9d9)" d="M192 16c0 8.837-7.163 16-16 16s-16-7.163-16-16 7.163-16 16-16 16 7.163 16 16z"/></symbol><symbol id="icon-hrdots-right" viewBox="0 0 192 32"><path fill="#d9d9d9" style="fill:var(--color1,#d9d9d9)" d="M32 16c0 8.837-7.163 16-16 16S0 24.837 0 16 7.163 0 16 0s16 7.163 16 16z"/><path fill="#d31342" style="fill:var(--color2,#d31342)" d="M191.467 16.8c.533-.533.533-1.6 0-2.133l-14.4-11.733c-.533-.533-1.6-.533-2.4 0l-14.4 12.267c-.533.533-.533 1.333 0 2.133l.267.267c.533.533 1.6.533 2.133.267l1.067-.8v13.067c0 .8.8 1.333 1.6 1.333h5.6c.8 0 1.6-.533 1.6-1.333v-9.333h7.2v9.067c0 .8.533 1.333 1.333 1.333h5.867c.8 0 1.6-.533 1.6-1.333v-12.8l.533.533c.266.266 1.067 0 1.6-.533l.8-.267z"/><path fill="#d9d9d9" style="fill:var(--color1,#d9d9d9)" d="M112 16c0 8.837-7.163 16-16 16s-16-7.163-16-16S87.163 0 96 0s16 7.163 16 16z"/></symbol><symbol id="arrowred" viewBox="0 0 10 15"><path d="m1 1 4 4-4 4" stroke="#D41443" stroke-width="2" stroke-linecap="round" stroke-linejoin="round"/></symbol><symbol id="icon-16" viewBox="0 0 31 32"><path fill="#fff" style="fill:var(--color1,#fff)" d="M19.636 5.818a5.818 5.818 0 1 0 11.636 0 5.818 5.818 0 0 0-11.636 0z"/><path fill="#d41443" style="fill:var(--color2,#d41443)" d="M8.885 20.602c0 .149-.414.271-1.242.367-.828.081-1.656.122-2.484.122s-1.364-.034-1.609-.102c-.231-.081-.346-.21-.346-.387v-8.797H1.127c-.231 0-.346-.495-.346-1.487s.115-1.887.346-2.688c.068-.258.787-.495 2.159-.713s2.423-.326 3.156-.326c.733 0 1.222.027 1.466.081s.428.122.55.204a.852.852 0 0 1 .285.244.802.802 0 0 1 .143.428v13.053zm7.924-8.41c.122-.109.448-.251.977-.428s1.127-.265 1.792-.265c.679 0 1.249.102 1.711.305.475.19.842.434 1.1.733.272.299.482.672.631 1.12.244.733.367 1.48.367 2.24s-.034 1.337-.102 1.731c-.054.38-.204.808-.448 1.283-.231.475-.55.876-.957 1.201-.394.326-.964.604-1.711.835-.733.217-1.595.326-2.586.326-2.131 0-3.74-.584-4.826-1.751-1.086-1.181-1.629-3.082-1.629-5.702 0-2.634.509-4.527 1.527-5.681 1.018-1.168 2.566-1.751 4.643-1.751 1.425 0 2.661.109 3.706.326 1.059.204 1.588.448 1.588.733 0 .353-.136.971-.407 1.853-.258.882-.495 1.324-.713 1.324-.068 0-.271-.034-.611-.102-.923-.19-1.765-.285-2.525-.285s-1.249.19-1.466.57c-.217.367-.326.91-.326 1.629.054-.068.143-.149.265-.244zm.448 1.833c-.394 0-.591.733-.591 2.199 0 1.453.197 2.179.591 2.179.421 0 .631-.726.631-2.179 0-1.466-.21-2.199-.631-2.199z"/><path fill="#fff" style="fill:var(--color1,#fff)" d="M11.217 30.615c-.275 0-.524-.062-.745-.186a1.422 1.422 0 0 1-.518-.529c-.124-.229-.186-.495-.186-.797s.062-.566.186-.791c.128-.229.301-.405.518-.529.221-.128.469-.192.745-.192.341 0 .628.089.861.268.237.178.386.417.448.716h-.5a.633.633 0 0 0-.285-.413.93.93 0 0 0-.529-.151.904.904 0 0 0-.809.489c-.089.163-.134.365-.134.605s.045.442.134.605a.952.952 0 0 0 .349.372.92.92 0 0 0 .46.122.964.964 0 0 0 .529-.145.655.655 0 0 0 .285-.425h.5c-.058.291-.206.527-.442.71s-.526.273-.867.273zm2.951 0c-.241 0-.44-.041-.599-.122a.83.83 0 0 1-.471-.768c0-.295.112-.522.337-.681s.531-.239.919-.239h.78v-.035c0-.252-.066-.442-.198-.57-.132-.132-.308-.198-.529-.198a.854.854 0 0 0-.495.145.617.617 0 0 0-.256.413h-.5a.934.934 0 0 1 .209-.529c.124-.143.277-.252.46-.326.182-.078.376-.116.582-.116.403 0 .706.109.908.326.206.213.308.498.308.855v1.775h-.436l-.029-.518a1.152 1.152 0 0 1-.361.419c-.155.113-.365.169-.628.169zm.076-.413a.79.79 0 0 0 .477-.145c.136-.097.239-.223.308-.378s.105-.318.105-.489v-.006h-.739c-.287 0-.491.05-.611.151a.459.459 0 0 0-.175.367.46.46 0 0 0 .163.367c.112.089.27.134.471.134zm2.269.343v-2.473h-.436v-.413h.436v-.5c0-.279.07-.483.209-.611s.343-.192.611-.192h.291v.419h-.215c-.147 0-.252.031-.314.093-.062.058-.093.159-.093.303v.489h.71v.413h-.71v2.473h-.489zm2.964.07c-.275 0-.52-.062-.733-.186a1.391 1.391 0 0 1-.506-.529 1.671 1.671 0 0 1-.18-.797c0-.303.06-.566.18-.791a1.29 1.29 0 0 1 .5-.529 1.45 1.45 0 0 1 .751-.192c.279 0 .52.064.721.192.206.124.363.289.471.495a1.408 1.408 0 0 1 .157.791v.145H18.54c.012.221.062.405.151.553a.952.952 0 0 0 .343.326c.14.074.287.111.442.111.202 0 .37-.047.506-.14s.235-.219.297-.378h.483a1.311 1.311 0 0 1-.448.669c-.217.175-.497.262-.838.262zm0-2.612a.984.984 0 0 0-.623.215c-.178.14-.281.345-.308.617h1.815c-.012-.26-.101-.463-.268-.611s-.372-.221-.617-.221zm3.121 2.612c-.345 0-.632-.087-.861-.262s-.363-.411-.401-.71h.5a.713.713 0 0 0 .239.396c.132.109.308.163.529.163.206 0 .357-.043.454-.128a.413.413 0 0 0 .145-.314c0-.175-.064-.291-.192-.349a2.436 2.436 0 0 0-.529-.157c-.155-.031-.31-.076-.465-.134s-.285-.14-.39-.244a.586.586 0 0 1-.157-.425c0-.252.093-.458.279-.617.19-.163.446-.244.768-.244.306 0 .557.078.751.233.198.151.312.369.343.652h-.483a.485.485 0 0 0-.192-.343.655.655 0 0 0-.425-.128c-.175 0-.31.037-.407.111a.354.354 0 0 0-.14.291c0 .116.06.207.18.273.124.066.291.122.5.169.178.039.347.087.506.145a.904.904 0 0 1 .396.25c.105.109.157.268.157.477a.793.793 0 0 1-.297.646c-.198.167-.467.25-.809.25z"/></symbol><symbol id="icon-23" viewBox="0 0 38 32"><path fill="#fff" style="fill:var(--color1,#fff)" d="M26.047 5.954A5.954 5.954 0 1 0 32 0a5.953 5.953 0 0 0-5.953 5.954z"/><path fill="#d41443" style="fill:var(--color2,#d41443)" d="M7.732 11.44c-.389 0-.729-.458-1.021-1.375a9.11 9.11 0 0 1-.417-2.646c0-.194.215-.41.646-.646.431-.25 1.084-.472 1.959-.667s1.827-.292 2.855-.292c3.987 0 5.98 1.396 5.98 4.188 0 .778-.167 1.507-.5 2.188s-.702 1.229-1.104 1.646a8.392 8.392 0 0 1-1.417 1.125c-.625.389-1.222.695-1.792.917h4.167c.083 0 .174.042.271.125.097.069.201.292.313.667.111.361.167.82.167 1.375 0 .542-.035 1-.104 1.375-.07.361-.153.625-.25.792-.208.375-.396.577-.563.604l-.104.021H7.691c-.875 0-1.313-1.368-1.313-4.105 0-.306.903-1.146 2.709-2.521.681-.5 1.306-1.049 1.875-1.646s.854-1.084.854-1.459c0-.417-.313-.625-.938-.625s-1.285.16-1.98.479c-.681.319-1.07.479-1.167.479zM31.18 9.71c0 1.403-.556 2.452-1.667 3.146.153.069.347.236.583.5.25.264.458.528.625.792.431.681.646 1.486.646 2.417 0 1.528-.549 2.653-1.646 3.376s-2.605 1.084-4.522 1.084c-.945 0-1.841-.076-2.688-.229-.834-.167-1.473-.347-1.917-.542-.445-.208-.667-.396-.667-.563 0-.764.083-1.438.25-2.021s.354-.993.563-1.229c.208-.25.41-.375.604-.375.056 0 .424.125 1.104.375s1.348.375 2 .375c.667 0 1-.208 1-.625 0-.57-.702-.875-2.105-.917-.556-.014-.861-.028-.917-.042-.292-.097-.438-.708-.438-1.834s.146-1.743.438-1.854c.056-.028.361-.042.917-.042 1.403-.028 2.105-.313 2.105-.854 0-.417-.306-.625-.917-.625-.597 0-1.264.146-2 .438s-1.139.438-1.209.438c-.319 0-.611-.465-.875-1.396s-.396-1.591-.396-1.98c0-.361.403-.729 1.209-1.104.889-.403 2.195-.604 3.917-.604 4.001 0 6.001 1.299 6.001 3.897z"/><path fill="#fff" style="fill:var(--color1,#fff)" d="M1.275 30.512v-2.53H.828v-.423h.447v-.512c0-.286.071-.494.214-.625s.351-.196.625-.196h.298v.429h-.22c-.151 0-.258.032-.321.095-.063.06-.095.163-.095.31v.5h.726v.423h-.726v2.53h-.5zm3.051.071c-.278 0-.528-.063-.75-.191s-.399-.306-.53-.536c-.127-.234-.191-.508-.191-.822s.066-.585.196-.816c.131-.234.308-.415.53-.542.226-.127.478-.191.756-.191s.528.063.75.191c.222.127.397.308.524.542.131.23.196.502.196.816s-.066.587-.196.822c-.131.23-.31.409-.536.536a1.483 1.483 0 0 1-.75.191zm0-.429a.925.925 0 0 0 .833-.5c.091-.167.137-.373.137-.619s-.046-.452-.137-.619c-.087-.167-.204-.292-.351-.375s-.304-.125-.47-.125a.925.925 0 0 0-.833.5c-.091.167-.137.373-.137.619s.046.452.137.619a.939.939 0 0 0 .351.375.942.942 0 0 0 .47.125zm3.523.429c-.278 0-.528-.063-.75-.191s-.399-.306-.53-.536c-.127-.234-.191-.508-.191-.822s.066-.585.196-.816c.131-.234.308-.415.53-.542.226-.127.478-.191.756-.191s.528.063.75.191c.222.127.397.308.524.542.131.23.196.502.196.816s-.066.587-.196.822c-.131.23-.31.409-.536.536a1.483 1.483 0 0 1-.75.191zm0-.429a.925.925 0 0 0 .833-.5c.091-.167.137-.373.137-.619s-.046-.452-.137-.619c-.087-.167-.204-.292-.351-.375s-.304-.125-.47-.125a.925.925 0 0 0-.833.5c-.091.167-.137.373-.137.619s.046.452.137.619a.939.939 0 0 0 .351.375.942.942 0 0 0 .47.125zm3.518.429a1.46 1.46 0 0 1-.774-.202 1.404 1.404 0 0 1-.512-.554c-.119-.234-.179-.5-.179-.798s.061-.562.185-.792c.123-.234.294-.417.512-.548a1.44 1.44 0 0 1 .774-.202c.242 0 .456.05.643.149s.331.238.435.417v-1.828h.5v4.287h-.452l-.048-.488c-.095.143-.232.272-.411.387s-.403.173-.673.173zm.053-.435a.996.996 0 0 0 .524-.137.943.943 0 0 0 .357-.393c.087-.167.131-.361.131-.583s-.044-.417-.131-.583a.904.904 0 0 0-.357-.387.962.962 0 0 0-.524-.143.981.981 0 0 0-.524.143.956.956 0 0 0-.357.387c-.083.167-.125.361-.125.583s.042.417.125.583a.999.999 0 0 0 .357.393c.155.091.329.137.524.137zm5.088.364c-.27 0-.482-.066-.637-.196s-.232-.367-.232-.708v-1.625h-.512v-.423h.512l.066-.708h.435v.708h.869v.423h-.869v1.625c0 .187.038.314.113.381.075.063.208.095.399.095h.31v.429h-.452zm1.135 0v-2.953h.452l.042.566c.091-.194.23-.349.417-.464s.417-.173.691-.173v.524h-.137c-.175 0-.335.032-.482.095-.147.06-.264.163-.351.31s-.131.349-.131.607v1.488h-.5zm4.747-2.953v2.953h-.452l-.03-.53c-.095.187-.232.333-.411.441s-.381.161-.607.161c-.349 0-.629-.105-.839-.316-.206-.214-.31-.542-.31-.982v-1.727h.5v1.673c0 .615.254.923.762.923a.817.817 0 0 0 .631-.274c.171-.187.256-.45.256-.792v-1.53h.5zm2.18 3.024c-.282 0-.536-.063-.762-.191a1.452 1.452 0 0 1-.53-.542c-.127-.234-.191-.506-.191-.816s.064-.579.191-.81c.131-.234.308-.415.53-.542.226-.131.48-.196.762-.196.349 0 .643.091.881.274.242.183.395.427.458.732h-.512a.648.648 0 0 0-.292-.423.955.955 0 0 0-.542-.155.925.925 0 0 0-.827.5c-.091.167-.137.373-.137.619s.046.452.137.619c.091.167.21.294.357.381a.942.942 0 0 0 .47.125c.206 0 .387-.05.542-.149a.67.67 0 0 0 .292-.435h.512c-.06.298-.21.54-.452.726s-.538.28-.887.28zm2.038-.071v-4.287h.5v2.578l1.209-1.244h.613l-1.31 1.334 1.476 1.619h-.637l-1.351-1.53v1.53h-.5zm3.957.071c-.353 0-.647-.089-.881-.268s-.371-.421-.411-.726h.512c.032.155.113.29.244.405.135.111.316.167.542.167.21 0 .365-.044.464-.131a.424.424 0 0 0 .149-.322c0-.179-.066-.298-.196-.357a2.503 2.503 0 0 0-.542-.161c-.159-.032-.318-.077-.476-.137s-.292-.143-.399-.25a.6.6 0 0 1-.161-.435.79.79 0 0 1 .286-.631c.194-.167.456-.25.786-.25.314 0 .57.079.768.238.202.155.319.377.351.667h-.494a.5.5 0 0 0-.196-.351.67.67 0 0 0-.435-.131c-.179 0-.318.038-.417.113a.362.362 0 0 0-.143.298c0 .119.062.212.185.28.127.067.298.125.512.173.183.04.355.089.518.149a.925.925 0 0 1 .405.256c.107.111.161.274.161.488a.811.811 0 0 1-.304.661c-.202.171-.478.256-.828.256z"/></symbol><symbol id="icon-ellipse-cone" viewBox="0 0 32 32"><path fill="#ffa5ba" style="fill:var(--color1,#ffa5ba)" d="M32 16c0 8.837-7.163 16-16 16S0 24.837 0 16 7.163 0 16 0s16 7.163 16 16z"/></symbol><symbol id="icon-logo-ice" viewBox="0 0 127 32"><path fill="#fff" style="fill:var(--color1,#fff)" d="M31.36 16.32C31.36 24.98 24.483 32 16 32S.64 24.98.64 16.32 7.517.64 16 .64s15.36 7.02 15.36 15.68z"/><path fill="#d41443" style="fill:var(--color2,#d41443)" d="M11.849.561C4.444 2.804 0 8.635 0 16.003c0 6.022 3.091 11.277 8.179 13.904 2.64 1.345 3.027.384.579-1.474-1.738-1.409-2.061-2.05-2.061-4.421 0-1.666-.386-3.011-.966-3.524-1.158-.961-1.288-3.46-.128-4.357.45-.384.901-1.666.965-2.819.323-4.228 4.895-8.201 9.467-8.201s9.144 3.972 9.466 8.201c.064 1.153.515 2.435.966 2.819 1.158.897 1.03 3.396-.129 4.357-.579.513-.966 1.858-.966 3.524 0 2.371-.321 3.012-2.06 4.421-2.705 2.115-1.932 2.883 1.094 1.025 4.251-2.627 7.406-8.33 7.406-13.391 0-10.124-10.561-18.325-19.964-15.506z"/><path fill="#d41443" style="fill:var(--color2,#d41443)" d="M12.687 7.994c-1.16.513-2.125 1.154-2.125 1.538 0 .705 3.478 1.987 5.474 1.987s5.474-1.281 5.474-1.987c0-.768-3.993-2.499-5.603-2.499-.644.064-2.125.448-3.22.961zm33.164 3.332c-.966.256-1.158 1.089-1.158 5.702v5.382h4.572l-.193-5.574c-.193-5.83-.451-6.28-3.22-5.51zm7.535.32c-2.125 1.154-2.898 2.563-2.898 5.318 0 3.78 2.061 5.574 5.86 5.318 2.576-.192 2.833-.385 3.027-1.987s.064-1.73-1.932-1.602c-2.061.192-2.125.064-2.125-2.051s.129-2.243 1.997-2.05c1.545.128 2.125-.128 2.382-1.089.129-.641 0-1.538-.387-1.923-.901-.897-4.25-.897-5.924.064zm7.664.064c-.194.513-.258 3.012-.129 5.638l.193 4.742H65.3c3.864 0 4.186-.128 4.379-1.474.193-1.217-.064-1.409-2.06-1.409-1.288 0-2.319-.32-2.319-.641 0-.385.902-.641 1.932-.641 1.481 0 1.932-.256 1.932-1.281s-.451-1.281-1.932-1.281c-1.03 0-1.932-.32-1.932-.641 0-.385.837-.641 1.868-.641 1.804 0 3.027-1.409 2.254-2.627-.58-.961-7.985-.705-8.371.256zm12.943-.192c-2.125.833-2.962 2.307-3.027 4.998-.065 4.613 1.803 6.215 6.633 5.766 1.868-.128 2.189-.448 2.189-1.794 0-1.409-.257-1.602-2.061-1.409-1.546.128-2.125-.064-2.447-1.089-.58-1.987.644-3.588 2.705-3.588 1.224 0 1.868-.384 1.996-1.217.451-2.051-2.833-3.011-5.989-1.666zm7.921-.256c-.323.256-.515 2.883-.515 5.83v5.382l2.06-.192c1.61-.128 2.19-.577 2.512-1.795l.386-1.602.515 1.73c.387 1.474.837 1.795 2.512 1.795 2.769 0 3.091-.449 1.932-2.691-.708-1.41-.837-2.115-.322-2.627.837-.833.902-3.652.129-4.87-.644-1.025-8.371-1.858-9.208-.961zm5.28 3.46c0 .705-.257 1.281-.644 1.281-.322 0-.644-.576-.644-1.281s.322-1.282.644-1.282c.387 0 .644.577.644 1.282zm6.247-3.396c-.258.192-.451 2.819-.451 5.766v5.318h4.186c4.057 0 4.186-.064 4.186-1.602 0-1.346-.322-1.602-1.932-1.602-1.03 0-1.932-.32-1.932-.641 0-.385.708-.641 1.61-.641 1.159 0 1.61-.321 1.61-1.282s-.451-1.281-1.61-1.281c-.902 0-1.61-.32-1.61-.641 0-.384.902-.641 1.932-.641 1.61 0 1.932-.256 1.932-1.602 0-1.538-.193-1.602-3.735-1.602-2.061 0-3.992.192-4.186.448zm13.009-.064c-1.16.32-4.122 8.842-3.542 10.252.515 1.281 3.413 1.153 4.186-.192.579-1.089.644-1.089 1.803 0 1.482 1.281 4.701 1.474 4.701.256 0-.384-.644-2.947-1.482-5.574-1.288-4.228-1.674-4.805-3.027-4.933-.902 0-2.061.064-2.64.192zm1.803 5.83c-.193.641-.322.256-.322-.769 0-1.089.129-1.538.322-1.153.129.448.129 1.345 0 1.922zm7.47-5.766c-.58.192-.837 1.986-.837 5.702v5.382h1.868c1.61 0 1.932-.321 2.189-1.795.257-1.666.257-1.666.772-.32.258.833.902 1.474 1.352 1.474.515 0 1.224-.641 1.546-1.474.515-1.346.58-1.346.58.384.065 1.602.257 1.795 2.061 1.602l1.996-.192.065-5.318c.129-4.933.064-5.318-1.288-5.638-2.061-.512-3.799.705-4.379 3.076l-.451 2.115-.708-2.243c-.902-3.012-2.254-3.78-4.765-2.755zm-106.707.641c-.193.256-.387 1.089-.387 1.922 0 1.474.064 1.474 7.406 1.474 7.341 0 7.405 0 7.405-1.474 0-2.179-.579-2.435-2.64-1.409-2.319 1.217-7.213 1.217-9.531 0-1.03-.513-1.997-.705-2.254-.513zm-1.868 5.702c-1.03 1.089.708 1.538 5.731 1.538h5.409v2.243c0 1.217.322 2.243.644 2.243.386 0 .644-.961.644-2.179 0-2.115.129-2.243 2.576-2.435 1.416-.128 2.576-.512 2.576-.832 0-.705-16.872-1.282-17.581-.577z"/><path fill="#d41443" style="fill:var(--color2,#d41443)" d="M8.629 23.308c0 3.524 1.224 4.229 7.406 4.229s7.405-.705 7.405-4.229c0-1.538-.322-2.179-.966-2.179-.579 0-.965.577-.965 1.538 0 3.588-4.895 3.908-5.603.384-.322-1.858-.515-1.922-3.799-1.922H8.629v2.179zm3.993 7.24c.387 2.051 6.955 1.859 6.955-.128 0-.705-.837-.961-3.606-.961-3.027 0-3.542.192-3.348 1.089z"/></symbol><symbol id="icon-Ellipse-1" viewBox="0 0 32 32"><path fill="#fff" style="fill:var(--color1,#fff)" d="M32 16c0 8.837-7.163 16-16 16S0 24.837 0 16 7.163 0 16 0s16 7.163 16 16z"/></symbol></defs></svg>