
<svg aria-hidden="true" style="position: absolute; width: 0; height: 0; overflow: hidden;" version="1.1" xmlns="http://www.w3.org/2000/svg" xmlns:xlink="http://www.w3.org/1999/xlink">
<defs>
<symbol id="icon-arrow-right2" viewBox="0 0 32 32">
<path d="M19.414 27.414l10-10c0.781-0.781 0.781-2.047 0-2.828l-10-10c-0.781-0.781-2.047-0.781-2.828 0s-0.781 2.047 0 2.828l6.586 6.586h-19.172c-1.105 0-2 0.895-2 2s0.895 2 2 2h19.172l-6.586 6.586c-0.39 0.39-0.586 0.902-0.586 1.414s0.195 1.024 0.586 1.414c0.781 0.781 2.047 0.781 2.828 0z"></path>

<svg aria-hidden="true" style="position:absolute;width:0;height:0" xmlns="http://www.w3.org/2000/svg" overflow="hidden">
  <defs>
<symbol class="arrow">
<path d="M1 1L5 5L1 9" stroke="#D41443" stroke-width="2" stroke-linecap="round" stroke-linejoin="round"/>
</symbol>
<symbol id="contact">
<path d="M6 6C7.6575 6 9 4.6575 9 3C9 1.3425 7.6575 0 6 0C4.3425 0 3 1.3425 3 3C3 4.6575 4.3425 6 6 6ZM6 7.5C3.9975 7.5 0 8.505 0 10.5V11.25C0 11.6625 0.3375 12 0.75 12H11.25C11.6625 12 12 11.6625 12 11.25V10.5C12 8.505 8.0025 7.5 6 7.5Z"/>
</symbol>
<symbol id="phone">
<path d="M13.996 11.1226L12.1579 10.9127C11.7164 10.8621 11.2822 11.0141 10.971 11.3252L9.63945 12.6568C7.59144 11.6147 5.91251 9.94301 4.87041 7.88775L6.20922 6.54894C6.5204 6.23775 6.67237 5.80355 6.62171 5.3621L6.41185 3.53842C6.325 2.8075 5.70988 2.2575 4.97173 2.2575H3.71976C2.902 2.2575 2.22175 2.93776 2.2724 3.75552C2.65595 9.93577 7.59868 14.8713 13.7717 15.2548C14.5894 15.3055 15.2697 14.6252 15.2697 13.8075V12.5555C15.2769 11.8246 14.7269 11.2095 13.996 11.1226Z"/>
</symbol>
<symbol id="mail">
<path d="M14 0H2C1.175 0 0.5075 0.675 0.5075 1.5L0.5 10.5C0.5 11.325 1.175 12 2 12H14C14.825 12 15.5 11.325 15.5 10.5V1.5C15.5 0.675 14.825 0 14 0ZM13.7 3.1875L8.3975 6.5025C8.1575 6.6525 7.8425 6.6525 7.6025 6.5025L2.3 3.1875C2.1125 3.0675 2 2.865 2 2.6475C2 2.145 2.5475 1.845 2.975 2.1075L8 5.25L13.025 2.1075C13.4525 1.845 14 2.145 14 2.6475C14 2.865 13.8875 3.0675 13.7 3.1875Z"/>
</symbol>
<symbol id="check">
<rect width="16" height="15" rx="2"/>
<path d="M3.95703 7.75166L3.88825 7.68604L3.81923 7.75141L2.93123 8.59258L2.85486 8.66492L2.93097 8.73753L6.42671 12.0724L6.49574 12.1382L6.56476 12.0724L14.069 4.91352L14.1449 4.84116L14.069 4.76881L13.1873 3.92764L13.1183 3.86183L13.0493 3.92761L6.49577 10.1735L3.95703 7.75166Z" fill="white" stroke="white" stroke-width="0.2"/>
</symbol>
</defs>
</svg>


<svg aria-hidden="true" style="position: absolute; width: 0; height: 0; overflow: hidden;" version="1.1" xmlns="http://www.w3.org/2000/svg" xmlns:xlink="http://www.w3.org/1999/xlink">
<defs>
<symbol id="icon-arrow-right" viewBox="0 0 32 32">
<path fill="#c7133e" style="fill: var(--color7, #c7133e)" d="M32 16c0 1.105-0.895 2-2 2s-2-0.895-2-2c0-1.105 0.895-2 2-2s2 0.895 2 2z"></path>

</symbol>
<symbol id="icon-arrow-white" viewBox="0 0 32 32">
<path fill="none" stroke="#fff" style="stroke: var(--color1, #fff)" stroke-linejoin="round" stroke-linecap="round" stroke-miterlimit="4" stroke-width="6.4" d="M8.373 3.2l14.169 12.8-14.169 12.8"></path>
</symbol>

<symbol id="icon-icon-hrdots" viewBox="0 0 32 32">


<symbol id="icon-icon-hrdots" viewBox="0 0 32 32">


<symbol id="icon-hrdots" viewBox="0 0 32 32">

<symbol id="icon-icon-hrdots" viewBox="0 0 32 32">



<path fill="#d9d9d9" style="fill: var(--color2, #d9d9d9)" d="M18.667 16c0 1.473-1.194 2.667-2.667 2.667s-2.667-1.194-2.667-2.667c0-1.473 1.194-2.667 2.667-2.667s2.667 1.194 2.667 2.667z"></path>
<path fill="#d31342" style="fill: var(--color3, #d31342)" d="M5.267 16.128c0.097-0.099 0.087-0.251-0.021-0.339l-2.384-1.945c-0.108-0.088-0.282-0.086-0.388 0.004l-2.392 2.045c-0.106 0.091-0.111 0.242-0.011 0.339l0.060 0.058c0.099 0.097 0.26 0.108 0.359 0.026l0.179-0.149v2.186c0 0.134 0.117 0.243 0.26 0.243h0.932c0.144 0 0.26-0.109 0.26-0.243v-1.529h1.189v1.529c-0.002 0.134 0.101 0.243 0.244 0.243h0.988c0.144 0 0.26-0.109 0.26-0.243v-2.155c0 0 0.049 0.040 0.11 0.090s0.189 0.010 0.285-0.089l0.068-0.069z"></path>
<path fill="#d9d9d9" style="fill: var(--color2, #d9d9d9)" d="M32 16c0 1.473-1.194 2.667-2.667 2.667s-2.667-1.194-2.667-2.667c0-1.473 1.194-2.667 2.667-2.667s2.667 1.194 2.667 2.667z"></path>
</symbol>

<symbol id="icon-icon-qm" viewBox="0 0 32 32">


<symbol id="icon-icon-qm" viewBox="0 0 32 32">

<symbol id="icon-qm" viewBox="0 0 32 32">

<symbol id="icon-icon-qm" viewBox="0 0 32 32">



<path fill="#e1e1e1" style="fill: var(--color4, #e1e1e1)" d="M23.714 4.148c1.429 0 2.778 0.385 4.048 1.156s2.302 1.879 3.095 3.324c0.762 1.445 1.143 3.148 1.143 5.107s-0.476 3.87-1.429 5.733c-0.317 0.674-0.889 1.542-1.714 2.602-0.857 1.060-1.651 1.975-2.381 2.746l-3 3.035-2.143-3.565c1.492-0.931 2.81-2.088 3.952-3.469 1.143-1.349 1.714-2.586 1.714-3.71 0-0.578-0.127-1.044-0.381-1.397-1.111 0.803-2.349 1.204-3.714 1.204-0.984 0-1.921-0.305-2.81-0.915-0.921-0.578-1.651-1.349-2.19-2.313-0.571-0.931-0.857-1.895-0.857-2.891 0-1.124 0.333-2.2 1-3.228 0.635-1.028 1.476-1.863 2.524-2.505 1.016-0.61 2.063-0.915 3.143-0.915zM6.619 4.148c1.429 0 2.778 0.385 4.048 1.156s2.302 1.879 3.095 3.324c0.762 1.445 1.143 3.148 1.143 5.107 0 1.381-0.175 2.618-0.524 3.71-0.349 1.124-0.952 2.297-1.81 3.517-0.825 1.156-1.603 2.12-2.333 2.891-0.73 0.803-2 2.136-3.81 3.999l-2.143-3.565c1.492-0.931 2.81-2.088 3.952-3.469 1.143-1.349 1.714-2.586 1.714-3.71 0-0.578-0.127-1.044-0.381-1.397-1.111 0.803-2.349 1.204-3.714 1.204-0.984 0-1.921-0.305-2.81-0.915-0.921-0.578-1.651-1.349-2.19-2.313-0.571-0.931-0.857-1.895-0.857-2.891 0-1.124 0.317-2.2 0.952-3.228s1.476-1.863 2.524-2.505c1.016-0.61 2.063-0.915 3.143-0.915z"></path>
</symbol>
<symbol id="icon-icon-heart" viewBox="0 0 32 32">
<path fill="#ffa5ba" style="fill: var(--color5, #ffa5ba); stroke: var(--color5, #ffa5ba)" stroke="#ffa5ba" stroke-linejoin="miter" stroke-linecap="butt" stroke-miterlimit="4" stroke-width="0.3077" d="M2.513 11.16l0 0c0.587 2.696 1.894 5.088 3.953 7.163 1.839 1.86 3.455 2.99 6.008 4.163 0 0 0 0 0.001 0l1.238 0.581v8.47h1.73v-7.901l0.159 0.047c0.229 0.066 0.567 0.066 0.796 0l0.001-0 0.159-0.046v7.901h1.73v-8.481l1.179-0.536c2.469-1.138 4.263-2.372 6.008-4.141l0-0c2.786-2.829 4.217-6.052 4.217-9.561 0.012-3.851-2.010-7-5.213-8.076-0.689-0.24-1.054-0.274-2.316-0.262M2.513 11.16l13.614-8.305-0.098-0.072M2.513 11.16c-0.134-0.615-0.202-1.454-0.205-2.276-0.003-0.82 0.059-1.636 0.194-2.201 0.723-3.189 2.943-5.549 5.82-6.152M2.513 11.16l5.808-10.629M22.163 0.482h0c0 0-0 0-0 0zM22.163 0.482c-0.658 0.006-1.070 0.020-1.444 0.074-0.376 0.054-0.709 0.146-1.208 0.303l-0.002 0c-1.188 0.385-2.356 0.994-3.133 1.632l-0.001 0.001-0.346 0.291M16.029 2.783l-0.543-0.401c-1.672-1.23-3.385-1.829-5.396-1.911l-0.001-0c-0.347-0.012-0.718-0.012-1.036-0.001-0.312 0.010-0.586 0.030-0.733 0.063M16.029 2.783l-7.708-2.251M15.005 4.233l-0-0c-0.238-0.226-0.669-0.537-1.14-0.832-0.47-0.295-0.968-0.566-1.336-0.718-0.347-0.135-1.012-0.328-1.5-0.419-1.975-0.362-3.49 0.022-4.825 1.21l-0.001 0.001c-0.282 0.247-0.581 0.571-0.795 0.844-0.103 0.131-0.183 0.245-0.232 0.33 0.064 0.012 0.147 0.027 0.243 0.044 0.238 0.042 0.56 0.096 0.909 0.154 1.231 0.192 2.186 0.449 3.209 0.942 1.020 0.492 2.103 1.215 3.592 2.33l0.001 0.001c0.605 0.464 1.625 1.059 2.651 1.541h0l0.003 0.001c0.458 0.226 0.898 0.452 1.238 0.636 0.17 0.092 0.316 0.175 0.427 0.242 0.055 0.034 0.104 0.064 0.142 0.091 0.035 0.024 0.072 0.052 0.098 0.080 0.128 0.137 0.234 0.274 0.318 0.447s0.141 0.372 0.182 0.631c0.081 0.512 0.098 1.281 0.098 2.571 0 1.17 0.003 1.784 0.034 2.135 0.015 0.175 0.036 0.271 0.061 0.332 0.022 0.055 0.049 0.089 0.096 0.135 0.246 0.24 0.583 0.23 0.762 0.031l-0-0 0.004-0.004c0.050-0.052 0.097-0.135 0.125-0.456 0.027-0.32 0.033-0.837 0.033-1.723 0-1.173 0.029-1.886 0.159-2.378 0.067-0.251 0.161-0.448 0.292-0.622 0.13-0.172 0.293-0.314 0.488-0.459l0.002-0.001c0.197-0.142 0.368-0.235 0.647-0.308 0.27-0.071 0.643-0.124 1.24-0.193l0.001-0c1.864-0.207 2.941-0.447 4.23-0.937h0c0.405-0.154 0.704-0.268 0.927-0.371 0.225-0.103 0.357-0.188 0.439-0.273 0.076-0.079 0.115-0.168 0.134-0.302 0.020-0.142 0.014-0.324 0.002-0.588h-0l-0-0.003c-0.012-0.46-0.128-1.233-0.256-1.707l-0-0.001c-0.709-2.681-2.921-4.56-5.316-4.56-1.787 0-3.967 0.84-5.314 2.061l-0.001 0.001c-0.22 0.197-0.405 0.352-0.572 0.459s-0.327 0.175-0.495 0.182c-0.17 0.007-0.327-0.050-0.486-0.149-0.156-0.098-0.323-0.242-0.517-0.425zM5.033 4.621c-0.002-0.001-0.003-0.001-0.003-0.001s0.001 0 0.003 0.001zM10.859 8.597l-0.001-0.001c-1.232-0.914-2.577-1.584-3.762-1.879-0.543-0.131-1.235-0.239-1.803-0.295-0.284-0.028-0.533-0.042-0.715-0.040-0.091 0.001-0.16 0.006-0.206 0.015-0.007 0.001-0.013 0.002-0.018 0.004-0.049 0.096-0.1 0.264-0.148 0.496-0.052 0.252-0.095 0.561-0.127 0.893-0.063 0.665-0.077 1.407-0.019 1.947 0.316 2.926 1.588 5.398 4.032 7.743l0.001 0c1.927 1.865 4.325 3.319 7.043 4.235v0l0.002 0.001 0.862 0.305 0.874-0.306c2.542-0.871 5.036-2.326 6.844-4.018 1.246-1.168 1.889-1.964 2.711-3.37l0.001-0.001c0.254-0.428 0.603-1.203 0.874-1.892 0.135-0.344 0.248-0.661 0.32-0.899 0.026-0.086 0.045-0.159 0.058-0.218-0.042 0.011-0.091 0.025-0.145 0.041-0.2 0.059-0.473 0.151-0.767 0.259l-0.001 0c-1.188 0.432-2.967 0.816-4.402 0.944l-0.001 0c-0.021 0.002-0.042 0.004-0.063 0.005-0.323 0.027-0.548 0.045-0.715 0.089-0.166 0.044-0.252 0.106-0.311 0.216-0.067 0.126-0.107 0.328-0.127 0.676-0.018 0.322-0.018 0.746-0.018 1.313 0 0.039 0 0.080 0 0.121 0 1.098-0.014 1.745-0.096 2.184-0.042 0.223-0.102 0.398-0.189 0.553-0.087 0.154-0.196 0.283-0.328 0.417-0.235 0.247-0.47 0.425-0.733 0.54s-0.547 0.164-0.871 0.164c-0.5 0-0.927-0.099-1.284-0.317s-0.63-0.547-0.835-0.983l-0-0c-0.105-0.223-0.164-0.436-0.198-0.864-0.033-0.423-0.042-1.067-0.042-2.156 0-0.906-0.009-1.537-0.031-1.957-0.011-0.21-0.025-0.363-0.042-0.47-0.009-0.053-0.017-0.091-0.025-0.117-0.006-0.018-0.009-0.025-0.010-0.027 0 0 0 0 0 0-0.001-0.001-0.007-0.008-0.023-0.020s-0.039-0.029-0.068-0.048c-0.058-0.037-0.134-0.082-0.225-0.13-0.182-0.097-0.415-0.208-0.654-0.31-1.006-0.42-2.333-1.164-3.138-1.761-0.296-0.219-0.959-0.703-1.48-1.084l-0.001-0.001zM4.336 6.407c-0.002 0.001-0.002 0.001 0-0l-0 0zM4.373 6.369l-0.001 0.002c0-0.001 0.001-0.001 0.001-0.002z"></path>
</symbol>
<symbol id="icon-icon-apples" viewBox="0 0 32 32">
<path fill="#ffa5ba" style="fill: var(--color5, #ffa5ba)" d="M29.626 21.411c-1.292-0.458-2.382-0.344-3.242 0.018 0.145-0.877 0.47-1.832 1.17-2.481 0.431-0.4 0.456-1.074 0.056-1.505s-1.074-0.456-1.505-0.056c-1.229 1.14-1.706 2.748-1.874 4.081-0.32-0.144-0.673-0.253-1.058-0.311l1.89-9.83c0.060-0.312-0.022-0.634-0.225-0.879s-0.503-0.387-0.821-0.387h-0.204c0.094-0.5 0.141-0.997 0.137-1.47-0.016-1.994-0.903-3.495-2.374-4.017-1.41-0.5-2.59-0.35-3.507 0.066 0.145-0.976 0.494-2.063 1.282-2.794 0.431-0.4 0.456-1.074 0.056-1.505s-1.074-0.456-1.505-0.056c-1.32 1.225-1.815 2.965-1.982 4.386-0.735-0.348-1.644-0.527-2.708-0.33-1.094-1.571-2.613-2.296-4.089-1.942-1.451 0.349-2.358 1.115-2.901 1.962-0.41-0.899-0.712-2.001-0.452-3.036 0.143-0.57-0.203-1.149-0.773-1.292s-1.149 0.203-1.292 0.773c-0.439 1.746 0.095 3.476 0.729 4.758-1.016 0.137-2.117 0.65-3.049 1.866-0.578 0.755-0.773 1.698-0.596 2.7-0.173 0.065-0.329 0.173-0.449 0.318-0.202 0.245-0.285 0.567-0.225 0.879l3.809 19.809c0.096 0.501 0.535 0.864 1.046 0.864h15.237c0.511 0 0.949-0.362 1.046-0.864l0.038-0.195c0.287 0.198 0.596 0.363 0.927 0.487 1.266 0.471 2.447 0.278 3.044 0.118 0.316 0.085 0.795 0.179 1.364 0.179 0.506 0 1.084-0.075 1.68-0.297 2.36-0.879 3.615-3.839 3.596-6.178-0.015-1.904-0.866-3.339-2.276-3.839zM22.674 12.19c-0.49 4.705-4.452 7.91-9.971 7.91s-9.481-3.204-9.971-7.91h19.942zM16.032 7.515c0.184 0.349 0.536 0.567 0.93 0.567s0.746-0.218 0.93-0.567c0.029-0.048 0.29-0.466 0.769-0.777 0.629-0.408 1.35-0.46 2.203-0.157 0.851 0.302 0.952 1.518 0.956 2.027 0.004 0.463-0.064 0.962-0.191 1.453h-7.126c0.236-1.19 0.094-2.492-0.289-3.669 0.377 0.022 0.724 0.137 1.047 0.346 0.479 0.311 0.74 0.729 0.769 0.777zM3.077 8.724c0.55-0.719 1.182-1.068 1.932-1.069h0.002c0.57 0 1.016 0.208 1.066 0.232 0.341 0.189 0.749 0.172 1.079-0.037 0.331-0.211 0.51-0.592 0.481-0.983-0.006-0.077-0.116-1.893 1.983-2.397 0.876-0.211 1.625 0.754 1.906 1.178 0.807 1.22 1.221 3.108 0.777 4.413h-9.349c-0.141-0.443-0.179-0.943 0.122-1.336zM5.851 29.87l-2.111-10.978c0.138 0.133 0.281 0.263 0.427 0.389 2.208 1.901 5.239 2.948 8.535 2.948s6.328-1.047 8.535-2.948c0.052-0.044 0.102-0.090 0.152-0.135l-0.431 2.243c-0.020 0.007-0.041 0.013-0.061 0.021-1.41 0.5-2.261 1.935-2.276 3.839-0.009 1.164 0.297 2.483 0.898 3.622l-0.192 0.999h-13.477zM27.562 29.432c-0.943 0.351-1.881 0.017-1.916 0.005-0.25-0.097-0.518-0.099-0.768-0-0.009 0.004-0.96 0.352-1.917-0.005-1.338-0.498-2.223-2.556-2.21-4.165 0.004-0.466 0.095-1.578 0.858-1.849 0.349-0.124 0.661-0.175 0.939-0.175 1.108 0 1.657 0.812 1.782 1.024 0.184 0.35 0.535 0.569 0.931 0.569s0.747-0.219 0.931-0.569c0.156-0.265 0.977-1.468 2.721-0.849 0.763 0.271 0.854 1.383 0.858 1.849 0.013 1.609-0.872 3.667-2.21 4.166z"></path>
</symbol>
<symbol id="icon-icon-milk" viewBox="0 0 32 32">
<path fill="#ffa5ba" style="fill: var(--color5, #ffa5ba)" d="M7.773 0.144c-0.35 0.188-0.553 0.563-0.553 1.006 0.006 0.813 0.209 1.556 0.614 2.2l0.178 0.294-0.338 0.381c-0.381 0.425-0.473 0.581-0.645 1.088-0.141 0.412-0.154 1.162-0.031 1.581 0.43 1.438 1.854 2.269 3.248 1.9 0.473-0.125 0.761-0.281 1.203-0.656l0.374-0.312 0.35 0.175c0.196 0.1 0.528 0.244 0.743 0.325l0.381 0.138v0.7c0 1.106 0.227 1.762 0.81 2.356s1.498 0.9 2.29 0.762c0.565-0.1 1.117-0.381 1.492-0.762 0.583-0.594 0.81-1.25 0.81-2.356v-0.7l0.387-0.138c0.209-0.081 0.54-0.225 0.737-0.325l0.35-0.175 0.375 0.312c0.442 0.375 0.731 0.531 1.203 0.656 1.394 0.369 2.818-0.462 3.248-1.9 0.123-0.419 0.111-1.169-0.031-1.581-0.172-0.506-0.264-0.662-0.645-1.088l-0.338-0.381 0.178-0.294c0.405-0.644 0.608-1.387 0.614-2.2 0-0.444-0.203-0.819-0.553-1.006l-0.264-0.144h-15.926l-0.264 0.144zM22.508 2.1c0 0.019-0.178 0.313-0.399 0.663-0.651 1.031-0.626 1.256 0.239 2.169 0.313 0.331 0.602 0.662 0.645 0.737 0.233 0.463-0.233 1.038-0.749 0.919-0.123-0.025-0.393-0.244-0.786-0.631-0.786-0.775-1.056-0.862-1.658-0.519-0.694 0.4-1.578 0.806-2.008 0.925-0.608 0.175-0.817 0.306-0.976 0.638-0.129 0.256-0.141 0.362-0.141 1.362 0 1.231-0.049 1.431-0.399 1.6-0.252 0.125-0.301 0.125-0.553 0-0.35-0.169-0.399-0.369-0.399-1.6 0-1-0.012-1.106-0.135-1.362-0.166-0.325-0.375-0.463-0.982-0.638-0.528-0.15-1.308-0.494-1.738-0.775-0.405-0.263-0.761-0.362-1.044-0.313-0.184 0.037-0.368 0.181-0.86 0.662-0.405 0.394-0.694 0.625-0.817 0.65-0.51 0.119-0.976-0.463-0.743-0.919 0.043-0.075 0.332-0.406 0.645-0.737 0.866-0.912 0.89-1.138 0.239-2.169-0.221-0.35-0.399-0.644-0.399-0.663 0-0.025 2.929-0.038 6.508-0.038s6.508 0.013 6.508 0.038z"></path>
<path fill="#ffa5ba" style="fill: var(--color5, #ffa5ba)" d="M5.925 13.206c-0.313 0.212-0.485 0.512-0.485 0.844 0 0.225 3.119 16.925 3.229 17.275 0.055 0.194 0.282 0.425 0.522 0.55 0.227 0.125 0.387 0.125 6.809 0.125s6.582 0 6.809-0.125c0.239-0.125 0.467-0.356 0.522-0.55 0.11-0.35 3.229-17.050 3.229-17.275 0-0.331-0.172-0.631-0.485-0.844l-0.209-0.144h-19.732l-0.209 0.144zM24.135 15.481c-0.061 0.5-0.418 1.587-0.682 2.081-1.283 2.375-3.714 3.819-6.729 3.988-2.278 0.131-4.206-0.331-5.82-1.394-0.933-0.612-1.713-1.45-2.265-2.438-0.307-0.544-0.712-1.712-0.774-2.237l-0.043-0.356h16.356l-0.043 0.356zM9.83 21.919c2.634 1.775 6.569 2.244 9.885 1.169 1.105-0.356 2.235-0.956 3.18-1.688 0.276-0.219 0.295-0.219 0.264-0.081-0.018 0.081-0.381 1.994-0.804 4.244s-0.78 4.156-0.798 4.231l-0.031 0.144h-11.051l-0.031-0.144c-0.018-0.075-0.374-1.981-0.798-4.231s-0.786-4.163-0.804-4.244c-0.031-0.137-0.012-0.137 0.264 0.081 0.16 0.125 0.491 0.356 0.724 0.519z"></path>
</symbol>
<symbol id="icon-points-white" viewBox="0 0 32 32">
<path fill="#fff" style="fill: var(--color1, #fff)" d="M19.563 16c0 2.121-1.642 3.84-3.668 3.84s-3.668-1.719-3.668-3.84c0-2.121 1.642-3.84 3.668-3.84s3.668 1.719 3.668 3.84z"></path>
<path fill="#fff" style="fill: var(--color1, #fff)" d="M7.336 16c0 2.121-1.642 3.84-3.668 3.84s-3.668-1.719-3.668-3.84c0-2.121 1.642-3.84 3.668-3.84s3.668 1.719 3.668 3.84z"></path>
<path fill="#fff" style="fill: var(--color1, #fff)" d="M31.79 16c0 2.121-1.642 3.84-3.668 3.84s-3.668-1.719-3.668-3.84c0-2.121 1.642-3.84 3.668-3.84s3.668 1.719 3.668 3.84z"></path>
</symbol>
<symbol id="icon-arrow1" viewBox="0 0 32 32">

<path fill="none" stroke="#d41443" style="stroke: var(--color6, #d41443)" stroke-linejoin="round" stroke-linecap="round" stroke-miterlimit="4" stroke-width="6.4" d="M9.6 3.2l12.8 12.8-12.8 12.8"></path>


<path fill="none"  stroke-linejoin="round" stroke-linecap="round" stroke-miterlimit="4" stroke-width="6.4" d="M9.6 3.2l12.8 12.8-12.8 12.8"></path>

<path fill="none" stroke="#d41443" style="stroke: var(--color6, #d41443)" stroke-linejoin="round" stroke-linecap="round" stroke-miterlimit="4" stroke-width="6.4" d="M9.6 3.2l12.8 12.8-12.8 12.8"></path>


</symbol>
<symbol id="icon-points" viewBox="0 0 32 32">
<path fill="#c7133e" style="fill: var(--color7, #c7133e)" d="M18 16c0 1.105-0.895 2-2 2s-2-0.895-2-2c0-1.105 0.895-2 2-2s2 0.895 2 2z"></path>
<path fill="#c7133e" style="fill: var(--color7, #c7133e)" d="M4 16c0 1.105-0.895 2-2 2s-2-0.895-2-2c0-1.105 0.895-2 2-2s2 0.895 2 2z"></path>
<path fill="#c7133e" style="fill: var(--color7, #c7133e)" d="M32 16c0 1.105-0.895 2-2 2s-2-0.895-2-2c0-1.105 0.895-2 2-2s2 0.895 2 2z"></path>
</symbol>

</defs>
</svg>


</defs>
</svg>


<symbol id="icon-hrdots-center" viewBox="0 0 192 32">
<path fill="#d9d9d9" style="fill: var(--color1, #d9d9d9)" d="M32 16c0 8.837-7.163 16-16 16s-16-7.163-16-16c0-8.837 7.163-16 16-16s16 7.163 16 16z"></path>
<path fill="#d31342" style="fill: var(--color2, #d31342)" d="M111.467 16.8c0.533-0.533 0.533-1.6 0-2.133l-14.4-11.733c-0.533-0.533-1.6-0.533-2.4 0l-14.4 12.267c-0.533 0.533-0.533 1.333 0 2.133l0.267 0.267c0.533 0.533 1.6 0.533 2.133 0.267l1.067-0.8v13.067c0 0.8 0.8 1.333 1.6 1.333h5.6c0.8 0 1.6-0.533 1.6-1.333v-9.333h7.2v9.067c0 0.8 0.533 1.333 1.333 1.333h5.867c0.8 0 1.6-0.533 1.6-1.333v-12.8c0 0 0.267 0.267 0.533 0.533s1.067 0 1.6-0.533l0.8-0.267z"></path>
<path fill="#d9d9d9" style="fill: var(--color1, #d9d9d9)" d="M192 16c0 8.837-7.163 16-16 16s-16-7.163-16-16c0-8.837 7.163-16 16-16s16 7.163 16 16z"></path>
</symbol>
<symbol id="icon-hrdots-right" viewBox="0 0 192 32">
<path fill="#d9d9d9" style="fill: var(--color1, #d9d9d9)" d="M32 16c0 8.837-7.163 16-16 16s-16-7.163-16-16c0-8.837 7.163-16 16-16s16 7.163 16 16z"></path>
<path fill="#d31342" style="fill: var(--color2, #d31342)" d="M191.467 16.8c0.533-0.533 0.533-1.6 0-2.133l-14.4-11.733c-0.533-0.533-1.6-0.533-2.4 0l-14.4 12.267c-0.533 0.533-0.533 1.333 0 2.133l0.267 0.267c0.533 0.533 1.6 0.533 2.133 0.267l1.067-0.8v13.067c0 0.8 0.8 1.333 1.6 1.333h5.6c0.8 0 1.6-0.533 1.6-1.333v-9.333h7.2v9.067c0 0.8 0.533 1.333 1.333 1.333h5.867c0.8 0 1.6-0.533 1.6-1.333v-12.8c0 0 0.267 0.267 0.533 0.533s1.067 0 1.6-0.533l0.8-0.267z"></path>
<path fill="#d9d9d9" style="fill: var(--color1, #d9d9d9)" d="M112 16c0 8.837-7.163 16-16 16s-16-7.163-16-16c0-8.837 7.163-16 16-16s16 7.163 16 16z"></path>
<symbol id="icon-facebook" viewBox="0 0 16 32">
<path fill="#fff" style="fill: var(--color1, #fff)" d="M14.143 15.971h-4.033v14.865h-6.112v-14.865h-2.906v-5.222h2.906v-3.382c0-2.417 1.142-6.204 6.167-6.204l4.527 0.019v5.072h-3.284c-0.538 0-1.297 0.272-1.297 1.425v3.073h4.567l-0.534 5.219z"></path>
</symbol>
<symbol id="icon-github" viewBox="0 0 32 32">
<path fill="#fff" style="fill: var(--color1, #fff)" d="M16 0c-8.789 0-16 7.211-16 16 0 7.499 5.262 14.312 12.25 16v-5.293c-0.276 0.070-0.593 0.109-0.919 0.109-0.398 0-0.781-0.059-1.143-0.169l0.028 0.007c-0.946-0.278-1.714-0.909-2.285-1.869-0.363-0.613-1.008-1.28-1.68-1.23l-0.165-1.867c1.454-0.125 2.71 0.886 3.456 2.139 0.333 0.558 0.715 0.885 1.205 1.029 0.472 0.141 0.981 0.074 1.573-0.136 0.149-1.186 0.693-1.629 1.104-2.256-4.168-0.621-5.829-2.832-6.488-4.576-0.874-2.318-0.405-5.213 1.139-7.043 0.030-0.035 0.085-0.128 0.064-0.192-0.709-2.141 0.154-3.91 0.186-4.098 0.818 0.24 0.95-0.243 3.552 1.336l0.448 0.27c0.189 0.112 0.128 0.048 0.317 0.032 1.003-0.282 2.157-0.452 3.349-0.469l0.010-0c1.136 0.014 2.272 0.176 3.403 0.483l0.146 0.016c-0.013-0.003 0.040-0.010 0.128-0.062 3.248-1.968 3.131-1.325 4.003-1.608 0.032 0.189 0.882 1.987 0.182 4.099-0.096 0.291 2.816 2.957 1.202 7.235-0.659 1.744-2.32 3.957-6.486 4.578 0.534 0.816 1.176 1.248 1.173 2.928v6.606c6.986-1.688 12.25-8.501 12.25-16 0-8.789-7.211-16-16-16z"></path>
</symbol>
<symbol id="icon-telegram" viewBox="0 0 44 32">
<path fill="#fff" style="fill: var(--color1, #fff)" d="M17.344 21.048l-0.676 8.86c0.966 0 1.384-0.388 1.886-0.852l4.526-4.040 9.38 6.414c1.722 0.894 2.934 0.422 3.4-1.478l6.156-26.932c0.548-2.374-0.92-3.302-2.594-2.72l-36.194 12.934c-2.47 0.896-2.434 2.18-0.42 2.766l9.252 2.684 21.492-12.552c1.012-0.626 1.932-0.28 1.176 0.346l-17.386 14.57z"></path>
</symbol>
<symbol id="icon-right" viewBox="0 0 22 32">
<path fill="none" stroke="#d41443" style="stroke: var(--color1, #d41443)" stroke-linejoin="round" stroke-linecap="round" stroke-miterlimit="4" stroke-width="6.4" d="M5.040 3.2l13.226 12.8-13.226 12.8"></path>

</symbol>
</defs>
</svg>



