
<svg xmlns="http://www.w3.org/2000/svg">
<symbol id="imagen23">
<path fill="#000000" d="M8 0c-4.418 0-8 3.582-8 8s3.582 8 8 8 8-3.582 8-8-3.582-8-8-8zM4 4h8c0.143 0 0.281 0.031 0.409 0.088l-4.409 5.143-4.409-5.143c0.127-0.058 0.266-0.088 0.409-0.088zM3 11v-6c0-0.021 0.001-0.042 0.002-0.063l2.932 3.421-2.9 2.9c-0.023-0.083-0.034-0.17-0.034-0.258zM12 12h-8c-0.088 0-0.175-0.012-0.258-0.034l2.846-2.846 1.413 1.648 1.413-1.648 2.846 2.846c-0.083 0.023-0.17 0.034-0.258 0.034zM13 11c0 0.088-0.012 0.175-0.034 0.258l-2.9-2.9 2.932-3.421c0.001 0.021 0.002 0.042 0.002 0.063v6z"></path>
</symbol>

<symbol id="clip0_1_2667">
<path d="M9 9C10.6575 9 12 7.6575 12 6C12 4.3425 10.6575 3 9 3C7.3425 3 6 4.3425 6 6C6 7.6575 7.3425 9 9 9ZM9 10.5C6.9975 10.5 3 11.505 3 13.5V14.25C3 14.6625 3.3375 15 3.75 15H14.25C14.6625 15 15 14.6625 15 14.25V13.5C15 11.505 11.0025 10.5 9 10.5Z"/>
</symbol>

<symbol id="casa">
<path d="M14.5 0H1.50001C0.672854 0 0 0.672853 0 1.50001V10.5C0 11.3271 0.672854 12 1.50001 12H14.5C15.3271 12 16 11.3271 16 10.5V1.50001C16 0.672853 15.3271 0 14.5 0ZM14.5 0.999994C14.5679 0.999994 14.6325 1.01409 14.6916 1.0387L8 6.83838L1.30833 1.0387C1.36742 1.01412 1.43204 0.999994 1.49998 0.999994H14.5ZM14.5 11H1.50001C1.22414 11 0.999996 10.7759 0.999996 10.5V2.09521L7.67236 7.87792C7.76661 7.95944 7.8833 7.99999 8 7.99999C8.1167 7.99999 8.23339 7.95948 8.32764 7.87792L15 2.09521V10.5C15 10.7759 14.7759 11 14.5 11Z" fill="#2196F3"/>
</symbol>

<symbol id="telefono-inte">
<path d="M8.5 0H1.5C0.672848 0 0 0.672848 0 1.5V14.5C0 15.3272 0.672848 16 1.5 16H8.5C9.32715 16 10 15.3272 10 14.5V1.5C10 0.672848 9.32715 0 8.5 0ZM1.5 1H8.5C8.77588 1 9 1.22412 9 1.5V12H1V1.5C1 1.22412 1.22412 1 1.5 1ZM8.5 15H1.5C1.22412 15 1 14.7759 1 14.5V13H9V14.5C9 14.7759 8.77588 15 8.5 15Z" fill="#757575"/>
<path d="M2.35355 13.7389C2.54882 13.9213 2.54882 14.2169 2.35355 14.3992C2.15828 14.5816 1.84172 14.5816 1.64645 14.3992C1.45118 14.2169 1.45118 13.9213 1.64645 13.7389C1.84172 13.5566 2.15828 13.5566 2.35355 13.7389Z" fill="#757575"/>
</symbol>

<symbol id="triangulo">
  <circle r="75" cx="50%" cy="50%" fill="tomato" />
</symbol>

<symbol id="tele-contac">
<path style=" stroke:none;fill-rule:nonzero;fill:rgb(12.941176%,12.941176%,12.941176%);fill-opacity:1;" d="M 9.332031 7.414062 L 8.105469 7.273438 C 7.8125 7.242188 7.519531 7.34375 7.3125 7.550781 L 6.425781 8.4375 C 5.0625 7.742188 3.941406 6.628906 3.246094 5.257812 L 4.140625 4.367188 C 4.347656 4.160156 4.449219 3.867188 4.414062 3.574219 L 4.273438 2.359375 C 4.214844 1.871094 3.804688 1.503906 3.316406 1.503906 L 2.480469 1.503906 C 1.933594 1.503906 1.480469 1.957031 1.515625 2.503906 C 1.769531 6.625 5.066406 9.914062 9.179688 10.167969 C 9.726562 10.203125 10.179688 9.75 10.179688 9.203125 L 10.179688 8.371094 C 10.183594 7.882812 9.816406 7.472656 9.332031 7.414062 Z M 9.332031 7.414062 "/>
</symbol>

<symbol id="phone" viewBox="0 0 24 24">
<path d="M23,11a1,1,0,0,1-1-1,8.008,8.008,0,0,0-8-8,1,1,0,0,1,0-2A10.011,10.011,0,0,1,24,10,1,1,0,0,1,23,11Zm-3-1a6,6,0,0,0-6-6,1,1,0,1,0,0,2,4,4,0,0,1,4,4,1,1,0,0,0,2,0Zm2.183,12.164.91-1.049a3.1,3.1,0,0,0,0-4.377c-.031-.031-2.437-1.882-2.437-1.882a3.1,3.1,0,0,0-4.281.006l-1.906,1.606A12.784,12.784,0,0,1,7.537,9.524l1.6-1.9a3.1,3.1,0,0,0,.007-4.282S7.291.939,7.26.908A3.082,3.082,0,0,0,2.934.862l-1.15,1C-5.01,9.744,9.62,24.261,17.762,24A6.155,6.155,0,0,0,22.183,22.164Z"/>
</symbol>

<symbol id="contac-name" viewBox="0 0 512 512">
<circle cx="256" cy="128" r="128"/>
	<path d="M256,298.667c-105.99,0.118-191.882,86.01-192,192C64,502.449,73.551,512,85.333,512h341.333   c11.782,0,21.333-9.551,21.333-21.333C447.882,384.677,361.99,298.784,256,298.667z"/>
</symbol>

<symbol id="mensaje">
<path d="M14 0H2C1.175 0 0.5075 0.675 0.5075 1.5L0.5 10.5C0.5 11.325 1.175 12 2 12H14C14.825 12 15.5 11.325 15.5 10.5V1.5C15.5 0.675 14.825 0 14 0ZM13.7 3.1875L8.3975 6.5025C8.1575 6.6525 7.8425 6.6525 7.6025 6.5025L2.3 3.1875C2.1125 3.0675 2 2.865 2 2.6475C2 2.145 2.5475 1.845 2.975 2.1075L8 5.25L13.025 2.1075C13.4525 1.845 14 2.145 14 2.6475C14 2.865 13.8875 3.0675 13.7 3.1875Z"/>
</symbol>

<symbol id="checkform" viewbox="0 0 512 512">
	<path d="M405.333,0H106.667C47.786,0.071,0.071,47.786,0,106.667v298.667C0.071,464.214,47.786,511.93,106.667,512h298.667   C464.214,511.93,511.93,464.214,512,405.333V106.667C511.93,47.786,464.214,0.071,405.333,0z M426.667,172.352L229.248,369.771   c-16.659,16.666-43.674,16.671-60.34,0.012c-0.004-0.004-0.008-0.008-0.012-0.012l-83.563-83.541   c-8.348-8.348-8.348-21.882,0-30.229s21.882-8.348,30.229,0l83.541,83.541l197.44-197.419c8.348-8.318,21.858-8.294,30.176,0.053   C435.038,150.524,435.014,164.034,426.667,172.352z"/>
</symbol>

<symbol id="xvector" viewBox="0 0 11 11">
<path d="M11 1.10786L9.89214 0L5.5 4.39214L1.10786 0L0 1.10786L4.39214 5.5L0 9.89214L1.10786 11L5.5 6.60786L9.89214 11L11 9.89214L6.60786 5.5L11 1.10786Z"/>
</symbol>

<path d="M18.5144 0.877464C6.94289 4.38148 0 13.4919 0 25.0051C0 34.4159 4.82984 42.6253 12.779 46.73C16.9044 48.8324 17.5082 47.3307 13.6845 44.4273C10.9678 42.2248 10.4647 41.2237 10.4647 37.5194C10.4647 34.9164 9.86092 32.814 8.95533 32.0131C7.14414 30.5114 6.94289 26.6069 8.75408 25.2053C9.45844 24.6046 10.1628 22.6023 10.2634 20.8003C10.7665 14.1927 17.9107 7.9856 25.0548 7.9856C32.1989 7.9856 39.3431 14.1927 39.8462 20.8003C39.9468 22.6023 40.6511 24.6046 41.3555 25.2053C43.1667 26.6069 42.9654 30.5114 41.1543 32.0131C40.2487 32.814 39.6449 34.9164 39.6449 37.5194C39.6449 41.2237 39.1418 42.2248 36.425 44.4273C32.1989 47.7311 33.4064 48.9325 38.1356 46.0292C44.7766 41.9245 49.7071 33.0143 49.7071 25.1052C49.7071 9.28709 33.2051 -3.52758 18.5144 0.877464Z" fill="#D41443"/>

<symbol id="logocream" width= "199px" height="50px" viewBox="1 1 199 50">
<path d="M19.8225 12.4908C18.0113 13.2917 16.502 14.2928 16.502 14.8935C16.502 15.9948 21.9355 17.9971 25.0548 17.9971C28.1741 17.9971 33.6076 15.9948 33.6076 14.8935C33.6076 13.6921 27.3691 10.989 24.8535 10.989C23.8473 11.0892 21.533 11.6898 19.8225 12.4908Z" fill="#D41443"/>
<path d="M71.6425 17.6968C70.1332 18.0972 69.8313 19.3987 69.8313 26.607V35.0166H73.3531H76.9754L76.6736 26.3066C76.3717 17.1962 75.9692 16.4954 71.6425 17.6968Z" fill="#D41443"/>
<path d="M83.4152 18.1974C80.0947 19.9995 78.8872 22.202 78.8872 26.5069C78.8872 32.4137 82.1071 35.2169 88.0438 34.8164C92.0686 34.5161 92.4711 34.2157 92.773 31.7129C93.0749 29.21 92.8736 29.0098 89.7543 29.21C86.5345 29.5104 86.4338 29.3101 86.4338 26.0063C86.4338 22.7026 86.6351 22.5023 89.5531 22.8027C91.968 23.0029 92.8736 22.6025 93.2761 21.1007C93.4773 20.0996 93.2761 18.698 92.6724 18.0973C91.2637 16.6957 86.0313 16.6957 83.4152 18.1974Z" fill="#D41443"/>
<path d="M95.3892 18.2973C95.0873 19.0982 94.9867 23.0027 95.188 27.1074L95.4898 34.5159H102.03C108.068 34.5159 108.571 34.3156 108.872 32.2132C109.174 30.3111 108.772 30.0107 105.653 30.0107C103.64 30.0107 102.03 29.5101 102.03 29.0096C102.03 28.4089 103.439 28.0084 105.049 28.0084C107.363 28.0084 108.068 27.608 108.068 26.0061C108.068 24.4043 107.363 24.0038 105.049 24.0038C103.439 24.0038 102.03 23.5033 102.03 23.0027C102.03 22.402 103.338 22.0015 104.948 22.0015C107.766 22.0015 109.677 19.799 108.47 17.8968C107.564 16.3951 95.9929 16.7956 95.3892 18.2973Z" fill="#D41443"/>
<path d="M115.614 17.9971C112.294 19.2986 110.986 21.6012 110.885 25.806C110.784 33.0143 113.702 35.5172 121.249 34.8164C124.167 34.6161 124.67 34.1156 124.67 32.0132C124.67 29.8106 124.268 29.5103 121.45 29.8106C119.035 30.0109 118.13 29.7105 117.627 28.1087C116.721 25.0051 118.633 22.5023 121.853 22.5023C123.765 22.5023 124.771 21.9016 124.972 20.6001C125.676 17.3964 120.545 15.8947 115.614 17.9971Z" fill="#D41443"/>
<path d="M127.991 17.5966C127.487 17.9971 127.186 22.1018 127.186 26.7071V35.1167L130.405 34.8164C132.921 34.6161 133.827 33.9153 134.33 32.0131L134.933 29.5103L135.738 32.2134C136.342 34.516 137.046 35.0166 139.663 35.0166C143.989 35.0166 144.492 34.3158 142.681 30.8118C141.574 28.6092 141.373 27.508 142.178 26.7071C143.486 25.4056 143.587 21.0005 142.379 19.0984C141.373 17.4965 129.299 16.195 127.991 17.5966ZM136.241 23.0028C136.241 24.1041 135.839 25.0051 135.235 25.0051C134.732 25.0051 134.229 24.1041 134.229 23.0028C134.229 21.9016 134.732 21.0005 135.235 21.0005C135.839 21.0005 136.241 21.9016 136.241 23.0028Z" fill="#D41443"/>
<path d="M146.002 17.6968C145.599 17.9971 145.298 22.1018 145.298 26.7071V35.0166H151.838C158.177 35.0166 158.378 34.9165 158.378 32.5137C158.378 30.4113 157.875 30.0109 155.36 30.0109C153.75 30.0109 152.341 29.5103 152.341 29.0097C152.341 28.409 153.448 28.0086 154.857 28.0086C156.668 28.0086 157.372 27.508 157.372 26.0063C157.372 24.5046 156.668 24.004 154.857 24.004C153.448 24.004 152.341 23.5034 152.341 23.0028C152.341 22.4022 153.75 22.0017 155.36 22.0017C157.875 22.0017 158.378 21.6012 158.378 19.4988C158.378 17.0961 158.077 16.996 152.542 16.996C149.322 16.996 146.304 17.2963 146.002 17.6968Z" fill="#D41443"/>
<path d="M166.328 17.5969C164.516 18.0974 159.888 31.4127 160.793 33.6152C161.598 35.6175 166.126 35.4173 167.334 33.3149C168.239 31.6129 168.34 31.6129 170.151 33.3149C172.466 35.3172 177.497 35.6175 177.497 33.7153C177.497 33.1146 176.49 29.11 175.182 25.0053C173.17 18.3978 172.566 17.4967 170.453 17.2965C169.044 17.2965 167.233 17.3966 166.328 17.5969ZM169.145 26.7073C168.843 27.7084 168.642 27.1078 168.642 25.5059C168.642 23.804 168.843 23.1032 169.145 23.7039C169.346 24.4047 169.346 25.8063 169.145 26.7073Z" fill="#D41443"/>
<path d="M180.817 17.6968C179.911 17.9971 179.509 20.8003 179.509 26.607V35.0166H182.427C184.942 35.0166 185.445 34.516 185.848 32.2134C186.25 29.6104 186.25 29.6104 187.055 31.7128C187.458 33.0143 188.464 34.0155 189.168 34.0155C189.973 34.0155 191.08 33.0143 191.583 31.7128C192.388 29.6104 192.489 29.6104 192.489 32.3135C192.59 34.8164 192.891 35.1167 195.709 34.8164L198.828 34.516L198.929 26.2065C199.13 18.4977 199.029 17.897 196.916 17.3964C193.696 16.5955 190.98 18.4977 190.074 22.2019L189.37 25.5057L188.263 22.0017C186.854 17.2963 184.741 16.0949 180.817 17.6968Z" fill="#D41443"/>
<path d="M14.0869 18.6978C13.785 19.0983 13.4832 20.3998 13.4832 21.7013C13.4832 24.0039 13.5838 24.0039 25.0546 24.0039C36.5255 24.0039 36.6261 24.0039 36.6261 21.7013C36.6261 18.2974 35.7205 17.8969 32.5006 19.4987C28.8783 21.4009 21.231 21.4009 17.6086 19.4987C15.9987 18.6978 14.4894 18.3975 14.0869 18.6978Z" fill="#D41443"/>
<path d="M11.1688 27.608C9.5589 29.31 12.2757 30.0108 20.1242 30.0108H28.5764V33.5148C28.5764 35.417 29.0795 37.0188 29.5826 37.0188C30.1863 37.0188 30.5888 35.5171 30.5888 33.6149C30.5888 30.3111 30.7901 30.1109 34.6137 29.8105C36.8274 29.6103 38.6386 29.0096 38.6386 28.5091C38.6386 27.4078 12.2757 26.5068 11.1688 27.608Z" fill="#D41443"/>
<path d="M13.4832 36.4181C13.4832 41.9244 15.395 43.0256 25.0546 43.0256C34.7143 43.0256 36.6261 41.9244 36.6261 36.4181C36.6261 34.0153 36.123 33.0142 35.1168 33.0142C34.2112 33.0142 33.6075 33.9152 33.6075 35.4169C33.6075 41.0233 25.9602 41.5239 24.8534 36.0176C24.3503 33.1143 24.0484 33.0142 18.9167 33.0142H13.4832V36.4181Z" fill="#D41443"/>
<path d="M19.722 47.7312C20.3257 50.9349 30.5892 50.6345 30.5892 47.531C30.5892 46.4297 29.2811 46.0292 24.9543 46.0292C20.2251 46.0292 19.4201 46.3296 19.722 47.7312Z" fill="#D41443"/>

</symbol>
<symbol id="arrowred" viewBox="0 0 10 15">
<path d="M1 1L5 5L1 9" stroke="#D41443" stroke-width="2" stroke-linecap="round" stroke-linejoin="round"/>
</symbol>

</svg>


<svg aria-hidden="true" style="position: absolute; width: 0; height: 0; overflow: hidden;" version="1.1" xmlns="http://www.w3.org/2000/svg" xmlns:xlink="http://www.w3.org/1999/xlink">
<defs>
<symbol id="icon-arrow-right2" viewBox="0 0 32 32">
<path d="M19.414 27.414l10-10c0.781-0.781 0.781-2.047 0-2.828l-10-10c-0.781-0.781-2.047-0.781-2.828 0s-0.781 2.047 0 2.828l6.586 6.586h-19.172c-1.105 0-2 0.895-2 2s0.895 2 2 2h19.172l-6.586 6.586c-0.39 0.39-0.586 0.902-0.586 1.414s0.195 1.024 0.586 1.414c0.781 0.781 2.047 0.781 2.828 0z"></path>

<svg aria-hidden="true" style="position:absolute;width:0;height:0" xmlns="http://www.w3.org/2000/svg" overflow="hidden">
  <defs>
<symbol class="arrow">
<path d="M1 1L5 5L1 9" stroke="#D41443" stroke-width="2" stroke-linecap="round" stroke-linejoin="round"/>
</symbol>
<symbol id="contact">
<path d="M6 6C7.6575 6 9 4.6575 9 3C9 1.3425 7.6575 0 6 0C4.3425 0 3 1.3425 3 3C3 4.6575 4.3425 6 6 6ZM6 7.5C3.9975 7.5 0 8.505 0 10.5V11.25C0 11.6625 0.3375 12 0.75 12H11.25C11.6625 12 12 11.6625 12 11.25V10.5C12 8.505 8.0025 7.5 6 7.5Z"/>
</symbol>
<symbol id="phone">
<path d="M13.996 11.1226L12.1579 10.9127C11.7164 10.8621 11.2822 11.0141 10.971 11.3252L9.63945 12.6568C7.59144 11.6147 5.91251 9.94301 4.87041 7.88775L6.20922 6.54894C6.5204 6.23775 6.67237 5.80355 6.62171 5.3621L6.41185 3.53842C6.325 2.8075 5.70988 2.2575 4.97173 2.2575H3.71976C2.902 2.2575 2.22175 2.93776 2.2724 3.75552C2.65595 9.93577 7.59868 14.8713 13.7717 15.2548C14.5894 15.3055 15.2697 14.6252 15.2697 13.8075V12.5555C15.2769 11.8246 14.7269 11.2095 13.996 11.1226Z"/>
</symbol>
<symbol id="mail">
<path d="M14 0H2C1.175 0 0.5075 0.675 0.5075 1.5L0.5 10.5C0.5 11.325 1.175 12 2 12H14C14.825 12 15.5 11.325 15.5 10.5V1.5C15.5 0.675 14.825 0 14 0ZM13.7 3.1875L8.3975 6.5025C8.1575 6.6525 7.8425 6.6525 7.6025 6.5025L2.3 3.1875C2.1125 3.0675 2 2.865 2 2.6475C2 2.145 2.5475 1.845 2.975 2.1075L8 5.25L13.025 2.1075C13.4525 1.845 14 2.145 14 2.6475C14 2.865 13.8875 3.0675 13.7 3.1875Z"/>
</symbol>
<symbol id="check">
<rect width="16" height="15" rx="2"/>
<path d="M3.95703 7.75166L3.88825 7.68604L3.81923 7.75141L2.93123 8.59258L2.85486 8.66492L2.93097 8.73753L6.42671 12.0724L6.49574 12.1382L6.56476 12.0724L14.069 4.91352L14.1449 4.84116L14.069 4.76881L13.1873 3.92764L13.1183 3.86183L13.0493 3.92761L6.49577 10.1735L3.95703 7.75166Z" fill="white" stroke="white" stroke-width="0.2"/>
</symbol>
</defs>
</svg>


<svg aria-hidden="true" style="position: absolute; width: 0; height: 0; overflow: hidden;" version="1.1" xmlns="http://www.w3.org/2000/svg" xmlns:xlink="http://www.w3.org/1999/xlink">
<defs>
<symbol id="icon-arrow-right" viewBox="0 0 32 32">
<path fill="#c7133e" style="fill: var(--color7, #c7133e)" d="M32 16c0 1.105-0.895 2-2 2s-2-0.895-2-2c0-1.105 0.895-2 2-2s2 0.895 2 2z"></path>

</symbol>
<symbol id="icon-arrow-white" viewBox="0 0 32 32">
<path fill="none" stroke="#fff" style="stroke: var(--color1, #fff)" stroke-linejoin="round" stroke-linecap="round" stroke-miterlimit="4" stroke-width="6.4" d="M8.373 3.2l14.169 12.8-14.169 12.8"></path>
</symbol>

<symbol id="icon-hrdots" viewBox="0 0 32 32">
<path fill="#d9d9d9" style="fill: var(--color2, #d9d9d9)" d="M18.667 16c0 1.473-1.194 2.667-2.667 2.667s-2.667-1.194-2.667-2.667c0-1.473 1.194-2.667 2.667-2.667s2.667 1.194 2.667 2.667z"></path>
<path fill="#d31342" style="fill: var(--color3, #d31342)" d="M5.267 16.128c0.097-0.099 0.087-0.251-0.021-0.339l-2.384-1.945c-0.108-0.088-0.282-0.086-0.388 0.004l-2.392 2.045c-0.106 0.091-0.111 0.242-0.011 0.339l0.060 0.058c0.099 0.097 0.26 0.108 0.359 0.026l0.179-0.149v2.186c0 0.134 0.117 0.243 0.26 0.243h0.932c0.144 0 0.26-0.109 0.26-0.243v-1.529h1.189v1.529c-0.002 0.134 0.101 0.243 0.244 0.243h0.988c0.144 0 0.26-0.109 0.26-0.243v-2.155c0 0 0.049 0.040 0.11 0.090s0.189 0.010 0.285-0.089l0.068-0.069z"></path>
<path fill="#d9d9d9" style="fill: var(--color2, #d9d9d9)" d="M32 16c0 1.473-1.194 2.667-2.667 2.667s-2.667-1.194-2.667-2.667c0-1.473 1.194-2.667 2.667-2.667s2.667 1.194 2.667 2.667z"></path>
</symbol>



<path fill="#d9d9d9" style="fill: var(--color2, #d9d9d9)" d="M18.667 16c0 1.473-1.194 2.667-2.667 2.667s-2.667-1.194-2.667-2.667c0-1.473 1.194-2.667 2.667-2.667s2.667 1.194 2.667 2.667z"></path>
<path fill="#d31342" style="fill: var(--color3, #d31342)" d="M5.267 16.128c0.097-0.099 0.087-0.251-0.021-0.339l-2.384-1.945c-0.108-0.088-0.282-0.086-0.388 0.004l-2.392 2.045c-0.106 0.091-0.111 0.242-0.011 0.339l0.060 0.058c0.099 0.097 0.26 0.108 0.359 0.026l0.179-0.149v2.186c0 0.134 0.117 0.243 0.26 0.243h0.932c0.144 0 0.26-0.109 0.26-0.243v-1.529h1.189v1.529c-0.002 0.134 0.101 0.243 0.244 0.243h0.988c0.144 0 0.26-0.109 0.26-0.243v-2.155c0 0 0.049 0.040 0.11 0.090s0.189 0.010 0.285-0.089l0.068-0.069z"></path>
<path fill="#d9d9d9" style="fill: var(--color2, #d9d9d9)" d="M32 16c0 1.473-1.194 2.667-2.667 2.667s-2.667-1.194-2.667-2.667c0-1.473 1.194-2.667 2.667-2.667s2.667 1.194 2.667 2.667z"></path>
</symbol>

<symbol id="icon-qm" viewBox="0 0 32 32">
<path fill="#e1e1e1" style="fill: var(--color4, #e1e1e1)" d="M23.714 4.148c1.429 0 2.778 0.385 4.048 1.156s2.302 1.879 3.095 3.324c0.762 1.445 1.143 3.148 1.143 5.107s-0.476 3.87-1.429 5.733c-0.317 0.674-0.889 1.542-1.714 2.602-0.857 1.060-1.651 1.975-2.381 2.746l-3 3.035-2.143-3.565c1.492-0.931 2.81-2.088 3.952-3.469 1.143-1.349 1.714-2.586 1.714-3.71 0-0.578-0.127-1.044-0.381-1.397-1.111 0.803-2.349 1.204-3.714 1.204-0.984 0-1.921-0.305-2.81-0.915-0.921-0.578-1.651-1.349-2.19-2.313-0.571-0.931-0.857-1.895-0.857-2.891 0-1.124 0.333-2.2 1-3.228 0.635-1.028 1.476-1.863 2.524-2.505 1.016-0.61 2.063-0.915 3.143-0.915zM6.619 4.148c1.429 0 2.778 0.385 4.048 1.156s2.302 1.879 3.095 3.324c0.762 1.445 1.143 3.148 1.143 5.107 0 1.381-0.175 2.618-0.524 3.71-0.349 1.124-0.952 2.297-1.81 3.517-0.825 1.156-1.603 2.12-2.333 2.891-0.73 0.803-2 2.136-3.81 3.999l-2.143-3.565c1.492-0.931 2.81-2.088 3.952-3.469 1.143-1.349 1.714-2.586 1.714-3.71 0-0.578-0.127-1.044-0.381-1.397-1.111 0.803-2.349 1.204-3.714 1.204-0.984 0-1.921-0.305-2.81-0.915-0.921-0.578-1.651-1.349-2.19-2.313-0.571-0.931-0.857-1.895-0.857-2.891 0-1.124 0.317-2.2 0.952-3.228s1.476-1.863 2.524-2.505c1.016-0.61 2.063-0.915 3.143-0.915z"></path>
</symbol>



<path fill="#e1e1e1" style="fill: var(--color4, #e1e1e1)" d="M23.714 4.148c1.429 0 2.778 0.385 4.048 1.156s2.302 1.879 3.095 3.324c0.762 1.445 1.143 3.148 1.143 5.107s-0.476 3.87-1.429 5.733c-0.317 0.674-0.889 1.542-1.714 2.602-0.857 1.060-1.651 1.975-2.381 2.746l-3 3.035-2.143-3.565c1.492-0.931 2.81-2.088 3.952-3.469 1.143-1.349 1.714-2.586 1.714-3.71 0-0.578-0.127-1.044-0.381-1.397-1.111 0.803-2.349 1.204-3.714 1.204-0.984 0-1.921-0.305-2.81-0.915-0.921-0.578-1.651-1.349-2.19-2.313-0.571-0.931-0.857-1.895-0.857-2.891 0-1.124 0.333-2.2 1-3.228 0.635-1.028 1.476-1.863 2.524-2.505 1.016-0.61 2.063-0.915 3.143-0.915zM6.619 4.148c1.429 0 2.778 0.385 4.048 1.156s2.302 1.879 3.095 3.324c0.762 1.445 1.143 3.148 1.143 5.107 0 1.381-0.175 2.618-0.524 3.71-0.349 1.124-0.952 2.297-1.81 3.517-0.825 1.156-1.603 2.12-2.333 2.891-0.73 0.803-2 2.136-3.81 3.999l-2.143-3.565c1.492-0.931 2.81-2.088 3.952-3.469 1.143-1.349 1.714-2.586 1.714-3.71 0-0.578-0.127-1.044-0.381-1.397-1.111 0.803-2.349 1.204-3.714 1.204-0.984 0-1.921-0.305-2.81-0.915-0.921-0.578-1.651-1.349-2.19-2.313-0.571-0.931-0.857-1.895-0.857-2.891 0-1.124 0.317-2.2 0.952-3.228s1.476-1.863 2.524-2.505c1.016-0.61 2.063-0.915 3.143-0.915z"></path>
</symbol>
<symbol id="icon-icon-heart" viewBox="0 0 32 32">
<path fill="#ffa5ba" style="fill: var(--color5, #ffa5ba); stroke: var(--color5, #ffa5ba)" stroke="#ffa5ba" stroke-linejoin="miter" stroke-linecap="butt" stroke-miterlimit="4" stroke-width="0.3077" d="M2.513 11.16l0 0c0.587 2.696 1.894 5.088 3.953 7.163 1.839 1.86 3.455 2.99 6.008 4.163 0 0 0 0 0.001 0l1.238 0.581v8.47h1.73v-7.901l0.159 0.047c0.229 0.066 0.567 0.066 0.796 0l0.001-0 0.159-0.046v7.901h1.73v-8.481l1.179-0.536c2.469-1.138 4.263-2.372 6.008-4.141l0-0c2.786-2.829 4.217-6.052 4.217-9.561 0.012-3.851-2.010-7-5.213-8.076-0.689-0.24-1.054-0.274-2.316-0.262M2.513 11.16l13.614-8.305-0.098-0.072M2.513 11.16c-0.134-0.615-0.202-1.454-0.205-2.276-0.003-0.82 0.059-1.636 0.194-2.201 0.723-3.189 2.943-5.549 5.82-6.152M2.513 11.16l5.808-10.629M22.163 0.482h0c0 0-0 0-0 0zM22.163 0.482c-0.658 0.006-1.070 0.020-1.444 0.074-0.376 0.054-0.709 0.146-1.208 0.303l-0.002 0c-1.188 0.385-2.356 0.994-3.133 1.632l-0.001 0.001-0.346 0.291M16.029 2.783l-0.543-0.401c-1.672-1.23-3.385-1.829-5.396-1.911l-0.001-0c-0.347-0.012-0.718-0.012-1.036-0.001-0.312 0.010-0.586 0.030-0.733 0.063M16.029 2.783l-7.708-2.251M15.005 4.233l-0-0c-0.238-0.226-0.669-0.537-1.14-0.832-0.47-0.295-0.968-0.566-1.336-0.718-0.347-0.135-1.012-0.328-1.5-0.419-1.975-0.362-3.49 0.022-4.825 1.21l-0.001 0.001c-0.282 0.247-0.581 0.571-0.795 0.844-0.103 0.131-0.183 0.245-0.232 0.33 0.064 0.012 0.147 0.027 0.243 0.044 0.238 0.042 0.56 0.096 0.909 0.154 1.231 0.192 2.186 0.449 3.209 0.942 1.020 0.492 2.103 1.215 3.592 2.33l0.001 0.001c0.605 0.464 1.625 1.059 2.651 1.541h0l0.003 0.001c0.458 0.226 0.898 0.452 1.238 0.636 0.17 0.092 0.316 0.175 0.427 0.242 0.055 0.034 0.104 0.064 0.142 0.091 0.035 0.024 0.072 0.052 0.098 0.080 0.128 0.137 0.234 0.274 0.318 0.447s0.141 0.372 0.182 0.631c0.081 0.512 0.098 1.281 0.098 2.571 0 1.17 0.003 1.784 0.034 2.135 0.015 0.175 0.036 0.271 0.061 0.332 0.022 0.055 0.049 0.089 0.096 0.135 0.246 0.24 0.583 0.23 0.762 0.031l-0-0 0.004-0.004c0.050-0.052 0.097-0.135 0.125-0.456 0.027-0.32 0.033-0.837 0.033-1.723 0-1.173 0.029-1.886 0.159-2.378 0.067-0.251 0.161-0.448 0.292-0.622 0.13-0.172 0.293-0.314 0.488-0.459l0.002-0.001c0.197-0.142 0.368-0.235 0.647-0.308 0.27-0.071 0.643-0.124 1.24-0.193l0.001-0c1.864-0.207 2.941-0.447 4.23-0.937h0c0.405-0.154 0.704-0.268 0.927-0.371 0.225-0.103 0.357-0.188 0.439-0.273 0.076-0.079 0.115-0.168 0.134-0.302 0.020-0.142 0.014-0.324 0.002-0.588h-0l-0-0.003c-0.012-0.46-0.128-1.233-0.256-1.707l-0-0.001c-0.709-2.681-2.921-4.56-5.316-4.56-1.787 0-3.967 0.84-5.314 2.061l-0.001 0.001c-0.22 0.197-0.405 0.352-0.572 0.459s-0.327 0.175-0.495 0.182c-0.17 0.007-0.327-0.050-0.486-0.149-0.156-0.098-0.323-0.242-0.517-0.425zM5.033 4.621c-0.002-0.001-0.003-0.001-0.003-0.001s0.001 0 0.003 0.001zM10.859 8.597l-0.001-0.001c-1.232-0.914-2.577-1.584-3.762-1.879-0.543-0.131-1.235-0.239-1.803-0.295-0.284-0.028-0.533-0.042-0.715-0.040-0.091 0.001-0.16 0.006-0.206 0.015-0.007 0.001-0.013 0.002-0.018 0.004-0.049 0.096-0.1 0.264-0.148 0.496-0.052 0.252-0.095 0.561-0.127 0.893-0.063 0.665-0.077 1.407-0.019 1.947 0.316 2.926 1.588 5.398 4.032 7.743l0.001 0c1.927 1.865 4.325 3.319 7.043 4.235v0l0.002 0.001 0.862 0.305 0.874-0.306c2.542-0.871 5.036-2.326 6.844-4.018 1.246-1.168 1.889-1.964 2.711-3.37l0.001-0.001c0.254-0.428 0.603-1.203 0.874-1.892 0.135-0.344 0.248-0.661 0.32-0.899 0.026-0.086 0.045-0.159 0.058-0.218-0.042 0.011-0.091 0.025-0.145 0.041-0.2 0.059-0.473 0.151-0.767 0.259l-0.001 0c-1.188 0.432-2.967 0.816-4.402 0.944l-0.001 0c-0.021 0.002-0.042 0.004-0.063 0.005-0.323 0.027-0.548 0.045-0.715 0.089-0.166 0.044-0.252 0.106-0.311 0.216-0.067 0.126-0.107 0.328-0.127 0.676-0.018 0.322-0.018 0.746-0.018 1.313 0 0.039 0 0.080 0 0.121 0 1.098-0.014 1.745-0.096 2.184-0.042 0.223-0.102 0.398-0.189 0.553-0.087 0.154-0.196 0.283-0.328 0.417-0.235 0.247-0.47 0.425-0.733 0.54s-0.547 0.164-0.871 0.164c-0.5 0-0.927-0.099-1.284-0.317s-0.63-0.547-0.835-0.983l-0-0c-0.105-0.223-0.164-0.436-0.198-0.864-0.033-0.423-0.042-1.067-0.042-2.156 0-0.906-0.009-1.537-0.031-1.957-0.011-0.21-0.025-0.363-0.042-0.47-0.009-0.053-0.017-0.091-0.025-0.117-0.006-0.018-0.009-0.025-0.010-0.027 0 0 0 0 0 0-0.001-0.001-0.007-0.008-0.023-0.020s-0.039-0.029-0.068-0.048c-0.058-0.037-0.134-0.082-0.225-0.13-0.182-0.097-0.415-0.208-0.654-0.31-1.006-0.42-2.333-1.164-3.138-1.761-0.296-0.219-0.959-0.703-1.48-1.084l-0.001-0.001zM4.336 6.407c-0.002 0.001-0.002 0.001 0-0l-0 0zM4.373 6.369l-0.001 0.002c0-0.001 0.001-0.001 0.001-0.002z"></path>
</symbol>
<symbol id="icon-icon-apples" viewBox="0 0 32 32">
<path fill="#ffa5ba" style="fill: var(--color5, #ffa5ba)" d="M29.626 21.411c-1.292-0.458-2.382-0.344-3.242 0.018 0.145-0.877 0.47-1.832 1.17-2.481 0.431-0.4 0.456-1.074 0.056-1.505s-1.074-0.456-1.505-0.056c-1.229 1.14-1.706 2.748-1.874 4.081-0.32-0.144-0.673-0.253-1.058-0.311l1.89-9.83c0.060-0.312-0.022-0.634-0.225-0.879s-0.503-0.387-0.821-0.387h-0.204c0.094-0.5 0.141-0.997 0.137-1.47-0.016-1.994-0.903-3.495-2.374-4.017-1.41-0.5-2.59-0.35-3.507 0.066 0.145-0.976 0.494-2.063 1.282-2.794 0.431-0.4 0.456-1.074 0.056-1.505s-1.074-0.456-1.505-0.056c-1.32 1.225-1.815 2.965-1.982 4.386-0.735-0.348-1.644-0.527-2.708-0.33-1.094-1.571-2.613-2.296-4.089-1.942-1.451 0.349-2.358 1.115-2.901 1.962-0.41-0.899-0.712-2.001-0.452-3.036 0.143-0.57-0.203-1.149-0.773-1.292s-1.149 0.203-1.292 0.773c-0.439 1.746 0.095 3.476 0.729 4.758-1.016 0.137-2.117 0.65-3.049 1.866-0.578 0.755-0.773 1.698-0.596 2.7-0.173 0.065-0.329 0.173-0.449 0.318-0.202 0.245-0.285 0.567-0.225 0.879l3.809 19.809c0.096 0.501 0.535 0.864 1.046 0.864h15.237c0.511 0 0.949-0.362 1.046-0.864l0.038-0.195c0.287 0.198 0.596 0.363 0.927 0.487 1.266 0.471 2.447 0.278 3.044 0.118 0.316 0.085 0.795 0.179 1.364 0.179 0.506 0 1.084-0.075 1.68-0.297 2.36-0.879 3.615-3.839 3.596-6.178-0.015-1.904-0.866-3.339-2.276-3.839zM22.674 12.19c-0.49 4.705-4.452 7.91-9.971 7.91s-9.481-3.204-9.971-7.91h19.942zM16.032 7.515c0.184 0.349 0.536 0.567 0.93 0.567s0.746-0.218 0.93-0.567c0.029-0.048 0.29-0.466 0.769-0.777 0.629-0.408 1.35-0.46 2.203-0.157 0.851 0.302 0.952 1.518 0.956 2.027 0.004 0.463-0.064 0.962-0.191 1.453h-7.126c0.236-1.19 0.094-2.492-0.289-3.669 0.377 0.022 0.724 0.137 1.047 0.346 0.479 0.311 0.74 0.729 0.769 0.777zM3.077 8.724c0.55-0.719 1.182-1.068 1.932-1.069h0.002c0.57 0 1.016 0.208 1.066 0.232 0.341 0.189 0.749 0.172 1.079-0.037 0.331-0.211 0.51-0.592 0.481-0.983-0.006-0.077-0.116-1.893 1.983-2.397 0.876-0.211 1.625 0.754 1.906 1.178 0.807 1.22 1.221 3.108 0.777 4.413h-9.349c-0.141-0.443-0.179-0.943 0.122-1.336zM5.851 29.87l-2.111-10.978c0.138 0.133 0.281 0.263 0.427 0.389 2.208 1.901 5.239 2.948 8.535 2.948s6.328-1.047 8.535-2.948c0.052-0.044 0.102-0.090 0.152-0.135l-0.431 2.243c-0.020 0.007-0.041 0.013-0.061 0.021-1.41 0.5-2.261 1.935-2.276 3.839-0.009 1.164 0.297 2.483 0.898 3.622l-0.192 0.999h-13.477zM27.562 29.432c-0.943 0.351-1.881 0.017-1.916 0.005-0.25-0.097-0.518-0.099-0.768-0-0.009 0.004-0.96 0.352-1.917-0.005-1.338-0.498-2.223-2.556-2.21-4.165 0.004-0.466 0.095-1.578 0.858-1.849 0.349-0.124 0.661-0.175 0.939-0.175 1.108 0 1.657 0.812 1.782 1.024 0.184 0.35 0.535 0.569 0.931 0.569s0.747-0.219 0.931-0.569c0.156-0.265 0.977-1.468 2.721-0.849 0.763 0.271 0.854 1.383 0.858 1.849 0.013 1.609-0.872 3.667-2.21 4.166z"></path>
</symbol>
<symbol id="icon-icon-milk" viewBox="0 0 32 32">
<path fill="#ffa5ba" style="fill: var(--color5, #ffa5ba)" d="M7.773 0.144c-0.35 0.188-0.553 0.563-0.553 1.006 0.006 0.813 0.209 1.556 0.614 2.2l0.178 0.294-0.338 0.381c-0.381 0.425-0.473 0.581-0.645 1.088-0.141 0.412-0.154 1.162-0.031 1.581 0.43 1.438 1.854 2.269 3.248 1.9 0.473-0.125 0.761-0.281 1.203-0.656l0.374-0.312 0.35 0.175c0.196 0.1 0.528 0.244 0.743 0.325l0.381 0.138v0.7c0 1.106 0.227 1.762 0.81 2.356s1.498 0.9 2.29 0.762c0.565-0.1 1.117-0.381 1.492-0.762 0.583-0.594 0.81-1.25 0.81-2.356v-0.7l0.387-0.138c0.209-0.081 0.54-0.225 0.737-0.325l0.35-0.175 0.375 0.312c0.442 0.375 0.731 0.531 1.203 0.656 1.394 0.369 2.818-0.462 3.248-1.9 0.123-0.419 0.111-1.169-0.031-1.581-0.172-0.506-0.264-0.662-0.645-1.088l-0.338-0.381 0.178-0.294c0.405-0.644 0.608-1.387 0.614-2.2 0-0.444-0.203-0.819-0.553-1.006l-0.264-0.144h-15.926l-0.264 0.144zM22.508 2.1c0 0.019-0.178 0.313-0.399 0.663-0.651 1.031-0.626 1.256 0.239 2.169 0.313 0.331 0.602 0.662 0.645 0.737 0.233 0.463-0.233 1.038-0.749 0.919-0.123-0.025-0.393-0.244-0.786-0.631-0.786-0.775-1.056-0.862-1.658-0.519-0.694 0.4-1.578 0.806-2.008 0.925-0.608 0.175-0.817 0.306-0.976 0.638-0.129 0.256-0.141 0.362-0.141 1.362 0 1.231-0.049 1.431-0.399 1.6-0.252 0.125-0.301 0.125-0.553 0-0.35-0.169-0.399-0.369-0.399-1.6 0-1-0.012-1.106-0.135-1.362-0.166-0.325-0.375-0.463-0.982-0.638-0.528-0.15-1.308-0.494-1.738-0.775-0.405-0.263-0.761-0.362-1.044-0.313-0.184 0.037-0.368 0.181-0.86 0.662-0.405 0.394-0.694 0.625-0.817 0.65-0.51 0.119-0.976-0.463-0.743-0.919 0.043-0.075 0.332-0.406 0.645-0.737 0.866-0.912 0.89-1.138 0.239-2.169-0.221-0.35-0.399-0.644-0.399-0.663 0-0.025 2.929-0.038 6.508-0.038s6.508 0.013 6.508 0.038z"></path>
<path fill="#ffa5ba" style="fill: var(--color5, #ffa5ba)" d="M5.925 13.206c-0.313 0.212-0.485 0.512-0.485 0.844 0 0.225 3.119 16.925 3.229 17.275 0.055 0.194 0.282 0.425 0.522 0.55 0.227 0.125 0.387 0.125 6.809 0.125s6.582 0 6.809-0.125c0.239-0.125 0.467-0.356 0.522-0.55 0.11-0.35 3.229-17.050 3.229-17.275 0-0.331-0.172-0.631-0.485-0.844l-0.209-0.144h-19.732l-0.209 0.144zM24.135 15.481c-0.061 0.5-0.418 1.587-0.682 2.081-1.283 2.375-3.714 3.819-6.729 3.988-2.278 0.131-4.206-0.331-5.82-1.394-0.933-0.612-1.713-1.45-2.265-2.438-0.307-0.544-0.712-1.712-0.774-2.237l-0.043-0.356h16.356l-0.043 0.356zM9.83 21.919c2.634 1.775 6.569 2.244 9.885 1.169 1.105-0.356 2.235-0.956 3.18-1.688 0.276-0.219 0.295-0.219 0.264-0.081-0.018 0.081-0.381 1.994-0.804 4.244s-0.78 4.156-0.798 4.231l-0.031 0.144h-11.051l-0.031-0.144c-0.018-0.075-0.374-1.981-0.798-4.231s-0.786-4.163-0.804-4.244c-0.031-0.137-0.012-0.137 0.264 0.081 0.16 0.125 0.491 0.356 0.724 0.519z"></path>
</symbol>
<symbol id="icon-points-white" viewBox="0 0 32 32">
<path fill="#fff" style="fill: var(--color1, #fff)" d="M19.563 16c0 2.121-1.642 3.84-3.668 3.84s-3.668-1.719-3.668-3.84c0-2.121 1.642-3.84 3.668-3.84s3.668 1.719 3.668 3.84z"></path>
<path fill="#fff" style="fill: var(--color1, #fff)" d="M7.336 16c0 2.121-1.642 3.84-3.668 3.84s-3.668-1.719-3.668-3.84c0-2.121 1.642-3.84 3.668-3.84s3.668 1.719 3.668 3.84z"></path>
<path fill="#fff" style="fill: var(--color1, #fff)" d="M31.79 16c0 2.121-1.642 3.84-3.668 3.84s-3.668-1.719-3.668-3.84c0-2.121 1.642-3.84 3.668-3.84s3.668 1.719 3.668 3.84z"></path>
</symbol>
<symbol id="icon-arrow1" viewBox="0 0 32 32">

<path fill="none" stroke="#d41443" style="stroke: var(--color6, #d41443)" stroke-linejoin="round" stroke-linecap="round" stroke-miterlimit="4" stroke-width="6.4" d="M9.6 3.2l12.8 12.8-12.8 12.8"></path>


<path fill="none"  stroke-linejoin="round" stroke-linecap="round" stroke-miterlimit="4" stroke-width="6.4" d="M9.6 3.2l12.8 12.8-12.8 12.8"></path>

<path fill="none" stroke="#d41443" style="stroke: var(--color6, #d41443)" stroke-linejoin="round" stroke-linecap="round" stroke-miterlimit="4" stroke-width="6.4" d="M9.6 3.2l12.8 12.8-12.8 12.8"></path>


</symbol>
<symbol id="icon-points" viewBox="0 0 32 32">
<path fill="#c7133e" style="fill: var(--color7, #c7133e)" d="M18 16c0 1.105-0.895 2-2 2s-2-0.895-2-2c0-1.105 0.895-2 2-2s2 0.895 2 2z"></path>
<path fill="#c7133e" style="fill: var(--color7, #c7133e)" d="M4 16c0 1.105-0.895 2-2 2s-2-0.895-2-2c0-1.105 0.895-2 2-2s2 0.895 2 2z"></path>
<path fill="#c7133e" style="fill: var(--color7, #c7133e)" d="M32 16c0 1.105-0.895 2-2 2s-2-0.895-2-2c0-1.105 0.895-2 2-2s2 0.895 2 2z"></path>
</symbol>


<symbol id="icon-facebook" viewBox="0 0 16 32">
<path fill="#fff" style="fill: var(--color1, #fff)" d="M14.143 15.971h-4.033v14.865h-6.112v-14.865h-2.906v-5.222h2.906v-3.382c0-2.417 1.142-6.204 6.167-6.204l4.527 0.019v5.072h-3.284c-0.538 0-1.297 0.272-1.297 1.425v3.073h4.567l-0.534 5.219z"></path>
</symbol>
<symbol id="icon-github" viewBox="0 0 32 32">
<path fill="#fff" style="fill: var(--color1, #fff)" d="M16 0c-8.789 0-16 7.211-16 16 0 7.499 5.262 14.312 12.25 16v-5.293c-0.276 0.070-0.593 0.109-0.919 0.109-0.398 0-0.781-0.059-1.143-0.169l0.028 0.007c-0.946-0.278-1.714-0.909-2.285-1.869-0.363-0.613-1.008-1.28-1.68-1.23l-0.165-1.867c1.454-0.125 2.71 0.886 3.456 2.139 0.333 0.558 0.715 0.885 1.205 1.029 0.472 0.141 0.981 0.074 1.573-0.136 0.149-1.186 0.693-1.629 1.104-2.256-4.168-0.621-5.829-2.832-6.488-4.576-0.874-2.318-0.405-5.213 1.139-7.043 0.030-0.035 0.085-0.128 0.064-0.192-0.709-2.141 0.154-3.91 0.186-4.098 0.818 0.24 0.95-0.243 3.552 1.336l0.448 0.27c0.189 0.112 0.128 0.048 0.317 0.032 1.003-0.282 2.157-0.452 3.349-0.469l0.010-0c1.136 0.014 2.272 0.176 3.403 0.483l0.146 0.016c-0.013-0.003 0.040-0.010 0.128-0.062 3.248-1.968 3.131-1.325 4.003-1.608 0.032 0.189 0.882 1.987 0.182 4.099-0.096 0.291 2.816 2.957 1.202 7.235-0.659 1.744-2.32 3.957-6.486 4.578 0.534 0.816 1.176 1.248 1.173 2.928v6.606c6.986-1.688 12.25-8.501 12.25-16 0-8.789-7.211-16-16-16z"></path>
</symbol>
<symbol id="icon-telegram" viewBox="0 0 44 32">
<path fill="#fff" style="fill: var(--color1, #fff)" d="M17.344 21.048l-0.676 8.86c0.966 0 1.384-0.388 1.886-0.852l4.526-4.040 9.38 6.414c1.722 0.894 2.934 0.422 3.4-1.478l6.156-26.932c0.548-2.374-0.92-3.302-2.594-2.72l-36.194 12.934c-2.47 0.896-2.434 2.18-0.42 2.766l9.252 2.684 21.492-12.552c1.012-0.626 1.932-0.28 1.176 0.346l-17.386 14.57z"></path>
</symbol>
<symbol id="icon-right" viewBox="0 0 22 32">
<path fill="none" stroke="#d41443" style="stroke: var(--color1, #d41443)" stroke-linejoin="round" stroke-linecap="round" stroke-miterlimit="4" stroke-width="6.4" d="M5.040 3.2l13.226 12.8-13.226 12.8"></path>
</symbol>
<symbol id="icon-hrdots-center" viewBox="0 0 192 32">
<path fill="#d9d9d9" style="fill: var(--color1, #d9d9d9)" d="M32 16c0 8.837-7.163 16-16 16s-16-7.163-16-16c0-8.837 7.163-16 16-16s16 7.163 16 16z"></path>
<path fill="#d31342" style="fill: var(--color2, #d31342)" d="M111.467 16.8c0.533-0.533 0.533-1.6 0-2.133l-14.4-11.733c-0.533-0.533-1.6-0.533-2.4 0l-14.4 12.267c-0.533 0.533-0.533 1.333 0 2.133l0.267 0.267c0.533 0.533 1.6 0.533 2.133 0.267l1.067-0.8v13.067c0 0.8 0.8 1.333 1.6 1.333h5.6c0.8 0 1.6-0.533 1.6-1.333v-9.333h7.2v9.067c0 0.8 0.533 1.333 1.333 1.333h5.867c0.8 0 1.6-0.533 1.6-1.333v-12.8c0 0 0.267 0.267 0.533 0.533s1.067 0 1.6-0.533l0.8-0.267z"></path>
<path fill="#d9d9d9" style="fill: var(--color1, #d9d9d9)" d="M192 16c0 8.837-7.163 16-16 16s-16-7.163-16-16c0-8.837 7.163-16 16-16s16 7.163 16 16z"></path>
</symbol>
<symbol id="icon-hrdots-right" viewBox="0 0 192 32">
<path fill="#d9d9d9" style="fill: var(--color1, #d9d9d9)" d="M32 16c0 8.837-7.163 16-16 16s-16-7.163-16-16c0-8.837 7.163-16 16-16s16 7.163 16 16z"></path>
<path fill="#d31342" style="fill: var(--color2, #d31342)" d="M191.467 16.8c0.533-0.533 0.533-1.6 0-2.133l-14.4-11.733c-0.533-0.533-1.6-0.533-2.4 0l-14.4 12.267c-0.533 0.533-0.533 1.333 0 2.133l0.267 0.267c0.533 0.533 1.6 0.533 2.133 0.267l1.067-0.8v13.067c0 0.8 0.8 1.333 1.6 1.333h5.6c0.8 0 1.6-0.533 1.6-1.333v-9.333h7.2v9.067c0 0.8 0.533 1.333 1.333 1.333h5.867c0.8 0 1.6-0.533 1.6-1.333v-12.8c0 0 0.267 0.267 0.533 0.533s1.067 0 1.6-0.533l0.8-0.267z"></path>
<path fill="#d9d9d9" style="fill: var(--color1, #d9d9d9)" d="M112 16c0 8.837-7.163 16-16 16s-16-7.163-16-16c0-8.837 7.163-16 16-16s16 7.163 16 16z"></path>
</symbol>
</defs>
</svg>


