

<svg aria-hidden="true" style="position: absolute; width: 0; height: 0; overflow: hidden;" version="1.1" xmlns="http://www.w3.org/2000/svg" xmlns:xlink="http://www.w3.org/1999/xlink">
<defs>
<symbol id="icon-arrow-right2" viewBox="0 0 32 32">
<path d="M19.414 27.414l10-10c0.781-0.781 0.781-2.047 0-2.828l-10-10c-0.781-0.781-2.047-0.781-2.828 0s-0.781 2.047 0 2.828l6.586 6.586h-19.172c-1.105 0-2 0.895-2 2s0.895 2 2 2h19.172l-6.586 6.586c-0.39 0.39-0.586 0.902-0.586 1.414s0.195 1.024 0.586 1.414c0.781 0.781 2.047 0.781 2.828 0z"></path>

<svg aria-hidden="true" style="position:absolute;width:0;height:0" xmlns="http://www.w3.org/2000/svg" overflow="hidden">
  <defs>
<symbol class="arrow">
<path d="M1 1L5 5L1 9" stroke="#D41443" stroke-width="2" stroke-linecap="round" stroke-linejoin="round"/>
</symbol>
<symbol id="contact">
<path d="M6 6C7.6575 6 9 4.6575 9 3C9 1.3425 7.6575 0 6 0C4.3425 0 3 1.3425 3 3C3 4.6575 4.3425 6 6 6ZM6 7.5C3.9975 7.5 0 8.505 0 10.5V11.25C0 11.6625 0.3375 12 0.75 12H11.25C11.6625 12 12 11.6625 12 11.25V10.5C12 8.505 8.0025 7.5 6 7.5Z"/>
</symbol>
<symbol id="phone">
<path d="M13.996 11.1226L12.1579 10.9127C11.7164 10.8621 11.2822 11.0141 10.971 11.3252L9.63945 12.6568C7.59144 11.6147 5.91251 9.94301 4.87041 7.88775L6.20922 6.54894C6.5204 6.23775 6.67237 5.80355 6.62171 5.3621L6.41185 3.53842C6.325 2.8075 5.70988 2.2575 4.97173 2.2575H3.71976C2.902 2.2575 2.22175 2.93776 2.2724 3.75552C2.65595 9.93577 7.59868 14.8713 13.7717 15.2548C14.5894 15.3055 15.2697 14.6252 15.2697 13.8075V12.5555C15.2769 11.8246 14.7269 11.2095 13.996 11.1226Z"/>
</symbol>
<symbol id="mail">
<path d="M14 0H2C1.175 0 0.5075 0.675 0.5075 1.5L0.5 10.5C0.5 11.325 1.175 12 2 12H14C14.825 12 15.5 11.325 15.5 10.5V1.5C15.5 0.675 14.825 0 14 0ZM13.7 3.1875L8.3975 6.5025C8.1575 6.6525 7.8425 6.6525 7.6025 6.5025L2.3 3.1875C2.1125 3.0675 2 2.865 2 2.6475C2 2.145 2.5475 1.845 2.975 2.1075L8 5.25L13.025 2.1075C13.4525 1.845 14 2.145 14 2.6475C14 2.865 13.8875 3.0675 13.7 3.1875Z"/>
</symbol>
<symbol id="check">
<rect width="16" height="15" rx="2"/>
<path d="M3.95703 7.75166L3.88825 7.68604L3.81923 7.75141L2.93123 8.59258L2.85486 8.66492L2.93097 8.73753L6.42671 12.0724L6.49574 12.1382L6.56476 12.0724L14.069 4.91352L14.1449 4.84116L14.069 4.76881L13.1873 3.92764L13.1183 3.86183L13.0493 3.92761L6.49577 10.1735L3.95703 7.75166Z" fill="white" stroke="white" stroke-width="0.2"/>
</symbol>
</defs>
</svg>

<svg aria-hidden="true" style="position: absolute; width: 0; height: 0; overflow: hidden;" version="1.1" xmlns="http://www.w3.org/2000/svg" xmlns:xlink="http://www.w3.org/1999/xlink">
<defs>
<symbol id="icon-arrow-right" viewBox="0 0 32 32">
<path fill="#c7133e" style="fill: var(--color7, #c7133e)" d="M32 16c0 1.105-0.895 2-2 2s-2-0.895-2-2c0-1.105 0.895-2 2-2s2 0.895 2 2z"></path>

</symbol>
<symbol id="icon-arrow-white" viewBox="0 0 32 32">
<path fill="none" stroke="#fff" style="stroke: var(--color1, #fff)" stroke-linejoin="round" stroke-linecap="round" stroke-miterlimit="4" stroke-width="6.4" d="M8.373 3.2l14.169 12.8-14.169 12.8"></path>
</symbol>

<symbol id="icon-hrdots" viewBox="0 0 32 32">
<path fill="#d9d9d9" style="fill: var(--color2, #d9d9d9)" d="M18.667 16c0 1.473-1.194 2.667-2.667 2.667s-2.667-1.194-2.667-2.667c0-1.473 1.194-2.667 2.667-2.667s2.667 1.194 2.667 2.667z"></path>
<path fill="#d31342" style="fill: var(--color3, #d31342)" d="M5.267 16.128c0.097-0.099 0.087-0.251-0.021-0.339l-2.384-1.945c-0.108-0.088-0.282-0.086-0.388 0.004l-2.392 2.045c-0.106 0.091-0.111 0.242-0.011 0.339l0.060 0.058c0.099 0.097 0.26 0.108 0.359 0.026l0.179-0.149v2.186c0 0.134 0.117 0.243 0.26 0.243h0.932c0.144 0 0.26-0.109 0.26-0.243v-1.529h1.189v1.529c-0.002 0.134 0.101 0.243 0.244 0.243h0.988c0.144 0 0.26-0.109 0.26-0.243v-2.155c0 0 0.049 0.040 0.11 0.090s0.189 0.010 0.285-0.089l0.068-0.069z"></path>
<path fill="#d9d9d9" style="fill: var(--color2, #d9d9d9)" d="M32 16c0 1.473-1.194 2.667-2.667 2.667s-2.667-1.194-2.667-2.667c0-1.473 1.194-2.667 2.667-2.667s2.667 1.194 2.667 2.667z"></path>
</symbol>

<path fill="#d9d9d9" style="fill: var(--color2, #d9d9d9)" d="M18.667 16c0 1.473-1.194 2.667-2.667 2.667s-2.667-1.194-2.667-2.667c0-1.473 1.194-2.667 2.667-2.667s2.667 1.194 2.667 2.667z"></path>
<path fill="#d31342" style="fill: var(--color3, #d31342)" d="M5.267 16.128c0.097-0.099 0.087-0.251-0.021-0.339l-2.384-1.945c-0.108-0.088-0.282-0.086-0.388 0.004l-2.392 2.045c-0.106 0.091-0.111 0.242-0.011 0.339l0.060 0.058c0.099 0.097 0.26 0.108 0.359 0.026l0.179-0.149v2.186c0 0.134 0.117 0.243 0.26 0.243h0.932c0.144 0 0.26-0.109 0.26-0.243v-1.529h1.189v1.529c-0.002 0.134 0.101 0.243 0.244 0.243h0.988c0.144 0 0.26-0.109 0.26-0.243v-2.155c0 0 0.049 0.040 0.11 0.090s0.189 0.010 0.285-0.089l0.068-0.069z"></path>
<path fill="#d9d9d9" style="fill: var(--color2, #d9d9d9)" d="M32 16c0 1.473-1.194 2.667-2.667 2.667s-2.667-1.194-2.667-2.667c0-1.473 1.194-2.667 2.667-2.667s2.667 1.194 2.667 2.667z"></path>
</symbol>

<symbol id="icon-qm" viewBox="0 0 32 32">
<path fill="#e1e1e1" style="fill: var(--color4, #e1e1e1)" d="M23.714 4.148c1.429 0 2.778 0.385 4.048 1.156s2.302 1.879 3.095 3.324c0.762 1.445 1.143 3.148 1.143 5.107s-0.476 3.87-1.429 5.733c-0.317 0.674-0.889 1.542-1.714 2.602-0.857 1.060-1.651 1.975-2.381 2.746l-3 3.035-2.143-3.565c1.492-0.931 2.81-2.088 3.952-3.469 1.143-1.349 1.714-2.586 1.714-3.71 0-0.578-0.127-1.044-0.381-1.397-1.111 0.803-2.349 1.204-3.714 1.204-0.984 0-1.921-0.305-2.81-0.915-0.921-0.578-1.651-1.349-2.19-2.313-0.571-0.931-0.857-1.895-0.857-2.891 0-1.124 0.333-2.2 1-3.228 0.635-1.028 1.476-1.863 2.524-2.505 1.016-0.61 2.063-0.915 3.143-0.915zM6.619 4.148c1.429 0 2.778 0.385 4.048 1.156s2.302 1.879 3.095 3.324c0.762 1.445 1.143 3.148 1.143 5.107 0 1.381-0.175 2.618-0.524 3.71-0.349 1.124-0.952 2.297-1.81 3.517-0.825 1.156-1.603 2.12-2.333 2.891-0.73 0.803-2 2.136-3.81 3.999l-2.143-3.565c1.492-0.931 2.81-2.088 3.952-3.469 1.143-1.349 1.714-2.586 1.714-3.71 0-0.578-0.127-1.044-0.381-1.397-1.111 0.803-2.349 1.204-3.714 1.204-0.984 0-1.921-0.305-2.81-0.915-0.921-0.578-1.651-1.349-2.19-2.313-0.571-0.931-0.857-1.895-0.857-2.891 0-1.124 0.317-2.2 0.952-3.228s1.476-1.863 2.524-2.505c1.016-0.61 2.063-0.915 3.143-0.915z"></path>
</symbol>

<path fill="#e1e1e1" style="fill: var(--color4, #e1e1e1)" d="M23.714 4.148c1.429 0 2.778 0.385 4.048 1.156s2.302 1.879 3.095 3.324c0.762 1.445 1.143 3.148 1.143 5.107s-0.476 3.87-1.429 5.733c-0.317 0.674-0.889 1.542-1.714 2.602-0.857 1.060-1.651 1.975-2.381 2.746l-3 3.035-2.143-3.565c1.492-0.931 2.81-2.088 3.952-3.469 1.143-1.349 1.714-2.586 1.714-3.71 0-0.578-0.127-1.044-0.381-1.397-1.111 0.803-2.349 1.204-3.714 1.204-0.984 0-1.921-0.305-2.81-0.915-0.921-0.578-1.651-1.349-2.19-2.313-0.571-0.931-0.857-1.895-0.857-2.891 0-1.124 0.333-2.2 1-3.228 0.635-1.028 1.476-1.863 2.524-2.505 1.016-0.61 2.063-0.915 3.143-0.915zM6.619 4.148c1.429 0 2.778 0.385 4.048 1.156s2.302 1.879 3.095 3.324c0.762 1.445 1.143 3.148 1.143 5.107 0 1.381-0.175 2.618-0.524 3.71-0.349 1.124-0.952 2.297-1.81 3.517-0.825 1.156-1.603 2.12-2.333 2.891-0.73 0.803-2 2.136-3.81 3.999l-2.143-3.565c1.492-0.931 2.81-2.088 3.952-3.469 1.143-1.349 1.714-2.586 1.714-3.71 0-0.578-0.127-1.044-0.381-1.397-1.111 0.803-2.349 1.204-3.714 1.204-0.984 0-1.921-0.305-2.81-0.915-0.921-0.578-1.651-1.349-2.19-2.313-0.571-0.931-0.857-1.895-0.857-2.891 0-1.124 0.317-2.2 0.952-3.228s1.476-1.863 2.524-2.505c1.016-0.61 2.063-0.915 3.143-0.915z"></path>
</symbol>
<symbol id="icon-icon-heart" viewBox="0 0 32 32">
<path fill="#ffa5ba" style="fill: var(--color5, #ffa5ba); stroke: var(--color5, #ffa5ba)" stroke="#ffa5ba" stroke-linejoin="miter" stroke-linecap="butt" stroke-miterlimit="4" stroke-width="0.3077" d="M2.513 11.16l0 0c0.587 2.696 1.894 5.088 3.953 7.163 1.839 1.86 3.455 2.99 6.008 4.163 0 0 0 0 0.001 0l1.238 0.581v8.47h1.73v-7.901l0.159 0.047c0.229 0.066 0.567 0.066 0.796 0l0.001-0 0.159-0.046v7.901h1.73v-8.481l1.179-0.536c2.469-1.138 4.263-2.372 6.008-4.141l0-0c2.786-2.829 4.217-6.052 4.217-9.561 0.012-3.851-2.010-7-5.213-8.076-0.689-0.24-1.054-0.274-2.316-0.262M2.513 11.16l13.614-8.305-0.098-0.072M2.513 11.16c-0.134-0.615-0.202-1.454-0.205-2.276-0.003-0.82 0.059-1.636 0.194-2.201 0.723-3.189 2.943-5.549 5.82-6.152M2.513 11.16l5.808-10.629M22.163 0.482h0c0 0-0 0-0 0zM22.163 0.482c-0.658 0.006-1.070 0.020-1.444 0.074-0.376 0.054-0.709 0.146-1.208 0.303l-0.002 0c-1.188 0.385-2.356 0.994-3.133 1.632l-0.001 0.001-0.346 0.291M16.029 2.783l-0.543-0.401c-1.672-1.23-3.385-1.829-5.396-1.911l-0.001-0c-0.347-0.012-0.718-0.012-1.036-0.001-0.312 0.010-0.586 0.030-0.733 0.063M16.029 2.783l-7.708-2.251M15.005 4.233l-0-0c-0.238-0.226-0.669-0.537-1.14-0.832-0.47-0.295-0.968-0.566-1.336-0.718-0.347-0.135-1.012-0.328-1.5-0.419-1.975-0.362-3.49 0.022-4.825 1.21l-0.001 0.001c-0.282 0.247-0.581 0.571-0.795 0.844-0.103 0.131-0.183 0.245-0.232 0.33 0.064 0.012 0.147 0.027 0.243 0.044 0.238 0.042 0.56 0.096 0.909 0.154 1.231 0.192 2.186 0.449 3.209 0.942 1.020 0.492 2.103 1.215 3.592 2.33l0.001 0.001c0.605 0.464 1.625 1.059 2.651 1.541h0l0.003 0.001c0.458 0.226 0.898 0.452 1.238 0.636 0.17 0.092 0.316 0.175 0.427 0.242 0.055 0.034 0.104 0.064 0.142 0.091 0.035 0.024 0.072 0.052 0.098 0.080 0.128 0.137 0.234 0.274 0.318 0.447s0.141 0.372 0.182 0.631c0.081 0.512 0.098 1.281 0.098 2.571 0 1.17 0.003 1.784 0.034 2.135 0.015 0.175 0.036 0.271 0.061 0.332 0.022 0.055 0.049 0.089 0.096 0.135 0.246 0.24 0.583 0.23 0.762 0.031l-0-0 0.004-0.004c0.050-0.052 0.097-0.135 0.125-0.456 0.027-0.32 0.033-0.837 0.033-1.723 0-1.173 0.029-1.886 0.159-2.378 0.067-0.251 0.161-0.448 0.292-0.622 0.13-0.172 0.293-0.314 0.488-0.459l0.002-0.001c0.197-0.142 0.368-0.235 0.647-0.308 0.27-0.071 0.643-0.124 1.24-0.193l0.001-0c1.864-0.207 2.941-0.447 4.23-0.937h0c0.405-0.154 0.704-0.268 0.927-0.371 0.225-0.103 0.357-0.188 0.439-0.273 0.076-0.079 0.115-0.168 0.134-0.302 0.020-0.142 0.014-0.324 0.002-0.588h-0l-0-0.003c-0.012-0.46-0.128-1.233-0.256-1.707l-0-0.001c-0.709-2.681-2.921-4.56-5.316-4.56-1.787 0-3.967 0.84-5.314 2.061l-0.001 0.001c-0.22 0.197-0.405 0.352-0.572 0.459s-0.327 0.175-0.495 0.182c-0.17 0.007-0.327-0.050-0.486-0.149-0.156-0.098-0.323-0.242-0.517-0.425zM5.033 4.621c-0.002-0.001-0.003-0.001-0.003-0.001s0.001 0 0.003 0.001zM10.859 8.597l-0.001-0.001c-1.232-0.914-2.577-1.584-3.762-1.879-0.543-0.131-1.235-0.239-1.803-0.295-0.284-0.028-0.533-0.042-0.715-0.040-0.091 0.001-0.16 0.006-0.206 0.015-0.007 0.001-0.013 0.002-0.018 0.004-0.049 0.096-0.1 0.264-0.148 0.496-0.052 0.252-0.095 0.561-0.127 0.893-0.063 0.665-0.077 1.407-0.019 1.947 0.316 2.926 1.588 5.398 4.032 7.743l0.001 0c1.927 1.865 4.325 3.319 7.043 4.235v0l0.002 0.001 0.862 0.305 0.874-0.306c2.542-0.871 5.036-2.326 6.844-4.018 1.246-1.168 1.889-1.964 2.711-3.37l0.001-0.001c0.254-0.428 0.603-1.203 0.874-1.892 0.135-0.344 0.248-0.661 0.32-0.899 0.026-0.086 0.045-0.159 0.058-0.218-0.042 0.011-0.091 0.025-0.145 0.041-0.2 0.059-0.473 0.151-0.767 0.259l-0.001 0c-1.188 0.432-2.967 0.816-4.402 0.944l-0.001 0c-0.021 0.002-0.042 0.004-0.063 0.005-0.323 0.027-0.548 0.045-0.715 0.089-0.166 0.044-0.252 0.106-0.311 0.216-0.067 0.126-0.107 0.328-0.127 0.676-0.018 0.322-0.018 0.746-0.018 1.313 0 0.039 0 0.080 0 0.121 0 1.098-0.014 1.745-0.096 2.184-0.042 0.223-0.102 0.398-0.189 0.553-0.087 0.154-0.196 0.283-0.328 0.417-0.235 0.247-0.47 0.425-0.733 0.54s-0.547 0.164-0.871 0.164c-0.5 0-0.927-0.099-1.284-0.317s-0.63-0.547-0.835-0.983l-0-0c-0.105-0.223-0.164-0.436-0.198-0.864-0.033-0.423-0.042-1.067-0.042-2.156 0-0.906-0.009-1.537-0.031-1.957-0.011-0.21-0.025-0.363-0.042-0.47-0.009-0.053-0.017-0.091-0.025-0.117-0.006-0.018-0.009-0.025-0.010-0.027 0 0 0 0 0 0-0.001-0.001-0.007-0.008-0.023-0.020s-0.039-0.029-0.068-0.048c-0.058-0.037-0.134-0.082-0.225-0.13-0.182-0.097-0.415-0.208-0.654-0.31-1.006-0.42-2.333-1.164-3.138-1.761-0.296-0.219-0.959-0.703-1.48-1.084l-0.001-0.001zM4.336 6.407c-0.002 0.001-0.002 0.001 0-0l-0 0zM4.373 6.369l-0.001 0.002c0-0.001 0.001-0.001 0.001-0.002z"></path>
</symbol>
<symbol id="icon-icon-apples" viewBox="0 0 32 32">
<path fill="#ffa5ba" style="fill: var(--color5, #ffa5ba)" d="M29.626 21.411c-1.292-0.458-2.382-0.344-3.242 0.018 0.145-0.877 0.47-1.832 1.17-2.481 0.431-0.4 0.456-1.074 0.056-1.505s-1.074-0.456-1.505-0.056c-1.229 1.14-1.706 2.748-1.874 4.081-0.32-0.144-0.673-0.253-1.058-0.311l1.89-9.83c0.060-0.312-0.022-0.634-0.225-0.879s-0.503-0.387-0.821-0.387h-0.204c0.094-0.5 0.141-0.997 0.137-1.47-0.016-1.994-0.903-3.495-2.374-4.017-1.41-0.5-2.59-0.35-3.507 0.066 0.145-0.976 0.494-2.063 1.282-2.794 0.431-0.4 0.456-1.074 0.056-1.505s-1.074-0.456-1.505-0.056c-1.32 1.225-1.815 2.965-1.982 4.386-0.735-0.348-1.644-0.527-2.708-0.33-1.094-1.571-2.613-2.296-4.089-1.942-1.451 0.349-2.358 1.115-2.901 1.962-0.41-0.899-0.712-2.001-0.452-3.036 0.143-0.57-0.203-1.149-0.773-1.292s-1.149 0.203-1.292 0.773c-0.439 1.746 0.095 3.476 0.729 4.758-1.016 0.137-2.117 0.65-3.049 1.866-0.578 0.755-0.773 1.698-0.596 2.7-0.173 0.065-0.329 0.173-0.449 0.318-0.202 0.245-0.285 0.567-0.225 0.879l3.809 19.809c0.096 0.501 0.535 0.864 1.046 0.864h15.237c0.511 0 0.949-0.362 1.046-0.864l0.038-0.195c0.287 0.198 0.596 0.363 0.927 0.487 1.266 0.471 2.447 0.278 3.044 0.118 0.316 0.085 0.795 0.179 1.364 0.179 0.506 0 1.084-0.075 1.68-0.297 2.36-0.879 3.615-3.839 3.596-6.178-0.015-1.904-0.866-3.339-2.276-3.839zM22.674 12.19c-0.49 4.705-4.452 7.91-9.971 7.91s-9.481-3.204-9.971-7.91h19.942zM16.032 7.515c0.184 0.349 0.536 0.567 0.93 0.567s0.746-0.218 0.93-0.567c0.029-0.048 0.29-0.466 0.769-0.777 0.629-0.408 1.35-0.46 2.203-0.157 0.851 0.302 0.952 1.518 0.956 2.027 0.004 0.463-0.064 0.962-0.191 1.453h-7.126c0.236-1.19 0.094-2.492-0.289-3.669 0.377 0.022 0.724 0.137 1.047 0.346 0.479 0.311 0.74 0.729 0.769 0.777zM3.077 8.724c0.55-0.719 1.182-1.068 1.932-1.069h0.002c0.57 0 1.016 0.208 1.066 0.232 0.341 0.189 0.749 0.172 1.079-0.037 0.331-0.211 0.51-0.592 0.481-0.983-0.006-0.077-0.116-1.893 1.983-2.397 0.876-0.211 1.625 0.754 1.906 1.178 0.807 1.22 1.221 3.108 0.777 4.413h-9.349c-0.141-0.443-0.179-0.943 0.122-1.336zM5.851 29.87l-2.111-10.978c0.138 0.133 0.281 0.263 0.427 0.389 2.208 1.901 5.239 2.948 8.535 2.948s6.328-1.047 8.535-2.948c0.052-0.044 0.102-0.090 0.152-0.135l-0.431 2.243c-0.020 0.007-0.041 0.013-0.061 0.021-1.41 0.5-2.261 1.935-2.276 3.839-0.009 1.164 0.297 2.483 0.898 3.622l-0.192 0.999h-13.477zM27.562 29.432c-0.943 0.351-1.881 0.017-1.916 0.005-0.25-0.097-0.518-0.099-0.768-0-0.009 0.004-0.96 0.352-1.917-0.005-1.338-0.498-2.223-2.556-2.21-4.165 0.004-0.466 0.095-1.578 0.858-1.849 0.349-0.124 0.661-0.175 0.939-0.175 1.108 0 1.657 0.812 1.782 1.024 0.184 0.35 0.535 0.569 0.931 0.569s0.747-0.219 0.931-0.569c0.156-0.265 0.977-1.468 2.721-0.849 0.763 0.271 0.854 1.383 0.858 1.849 0.013 1.609-0.872 3.667-2.21 4.166z"></path>
</symbol>
<symbol id="icon-icon-milk" viewBox="0 0 32 32">
<path fill="#ffa5ba" style="fill: var(--color5, #ffa5ba)" d="M7.773 0.144c-0.35 0.188-0.553 0.563-0.553 1.006 0.006 0.813 0.209 1.556 0.614 2.2l0.178 0.294-0.338 0.381c-0.381 0.425-0.473 0.581-0.645 1.088-0.141 0.412-0.154 1.162-0.031 1.581 0.43 1.438 1.854 2.269 3.248 1.9 0.473-0.125 0.761-0.281 1.203-0.656l0.374-0.312 0.35 0.175c0.196 0.1 0.528 0.244 0.743 0.325l0.381 0.138v0.7c0 1.106 0.227 1.762 0.81 2.356s1.498 0.9 2.29 0.762c0.565-0.1 1.117-0.381 1.492-0.762 0.583-0.594 0.81-1.25 0.81-2.356v-0.7l0.387-0.138c0.209-0.081 0.54-0.225 0.737-0.325l0.35-0.175 0.375 0.312c0.442 0.375 0.731 0.531 1.203 0.656 1.394 0.369 2.818-0.462 3.248-1.9 0.123-0.419 0.111-1.169-0.031-1.581-0.172-0.506-0.264-0.662-0.645-1.088l-0.338-0.381 0.178-0.294c0.405-0.644 0.608-1.387 0.614-2.2 0-0.444-0.203-0.819-0.553-1.006l-0.264-0.144h-15.926l-0.264 0.144zM22.508 2.1c0 0.019-0.178 0.313-0.399 0.663-0.651 1.031-0.626 1.256 0.239 2.169 0.313 0.331 0.602 0.662 0.645 0.737 0.233 0.463-0.233 1.038-0.749 0.919-0.123-0.025-0.393-0.244-0.786-0.631-0.786-0.775-1.056-0.862-1.658-0.519-0.694 0.4-1.578 0.806-2.008 0.925-0.608 0.175-0.817 0.306-0.976 0.638-0.129 0.256-0.141 0.362-0.141 1.362 0 1.231-0.049 1.431-0.399 1.6-0.252 0.125-0.301 0.125-0.553 0-0.35-0.169-0.399-0.369-0.399-1.6 0-1-0.012-1.106-0.135-1.362-0.166-0.325-0.375-0.463-0.982-0.638-0.528-0.15-1.308-0.494-1.738-0.775-0.405-0.263-0.761-0.362-1.044-0.313-0.184 0.037-0.368 0.181-0.86 0.662-0.405 0.394-0.694 0.625-0.817 0.65-0.51 0.119-0.976-0.463-0.743-0.919 0.043-0.075 0.332-0.406 0.645-0.737 0.866-0.912 0.89-1.138 0.239-2.169-0.221-0.35-0.399-0.644-0.399-0.663 0-0.025 2.929-0.038 6.508-0.038s6.508 0.013 6.508 0.038z"></path>
<path fill="#ffa5ba" style="fill: var(--color5, #ffa5ba)" d="M5.925 13.206c-0.313 0.212-0.485 0.512-0.485 0.844 0 0.225 3.119 16.925 3.229 17.275 0.055 0.194 0.282 0.425 0.522 0.55 0.227 0.125 0.387 0.125 6.809 0.125s6.582 0 6.809-0.125c0.239-0.125 0.467-0.356 0.522-0.55 0.11-0.35 3.229-17.050 3.229-17.275 0-0.331-0.172-0.631-0.485-0.844l-0.209-0.144h-19.732l-0.209 0.144zM24.135 15.481c-0.061 0.5-0.418 1.587-0.682 2.081-1.283 2.375-3.714 3.819-6.729 3.988-2.278 0.131-4.206-0.331-5.82-1.394-0.933-0.612-1.713-1.45-2.265-2.438-0.307-0.544-0.712-1.712-0.774-2.237l-0.043-0.356h16.356l-0.043 0.356zM9.83 21.919c2.634 1.775 6.569 2.244 9.885 1.169 1.105-0.356 2.235-0.956 3.18-1.688 0.276-0.219 0.295-0.219 0.264-0.081-0.018 0.081-0.381 1.994-0.804 4.244s-0.78 4.156-0.798 4.231l-0.031 0.144h-11.051l-0.031-0.144c-0.018-0.075-0.374-1.981-0.798-4.231s-0.786-4.163-0.804-4.244c-0.031-0.137-0.012-0.137 0.264 0.081 0.16 0.125 0.491 0.356 0.724 0.519z"></path>
</symbol>
<symbol id="icon-points-white" viewBox="0 0 32 32">
<path fill="#fff" style="fill: var(--color1, #fff)" d="M19.563 16c0 2.121-1.642 3.84-3.668 3.84s-3.668-1.719-3.668-3.84c0-2.121 1.642-3.84 3.668-3.84s3.668 1.719 3.668 3.84z"></path>
<path fill="#fff" style="fill: var(--color1, #fff)" d="M7.336 16c0 2.121-1.642 3.84-3.668 3.84s-3.668-1.719-3.668-3.84c0-2.121 1.642-3.84 3.668-3.84s3.668 1.719 3.668 3.84z"></path>
<path fill="#fff" style="fill: var(--color1, #fff)" d="M31.79 16c0 2.121-1.642 3.84-3.668 3.84s-3.668-1.719-3.668-3.84c0-2.121 1.642-3.84 3.668-3.84s3.668 1.719 3.668 3.84z"></path>
</symbol>
<symbol id="icon-arrow1" viewBox="0 0 32 32">

<path fill="none" stroke="#d41443" style="stroke: var(--color6, #d41443)" stroke-linejoin="round" stroke-linecap="round" stroke-miterlimit="4" stroke-width="6.4" d="M9.6 3.2l12.8 12.8-12.8 12.8"></path>


<path fill="none"  stroke-linejoin="round" stroke-linecap="round" stroke-miterlimit="4" stroke-width="6.4" d="M9.6 3.2l12.8 12.8-12.8 12.8"></path>

<path fill="none" stroke="#d41443" style="stroke: var(--color6, #d41443)" stroke-linejoin="round" stroke-linecap="round" stroke-miterlimit="4" stroke-width="6.4" d="M9.6 3.2l12.8 12.8-12.8 12.8"></path>


</symbol>
<symbol id="icon-points" viewBox="0 0 32 32">
<path fill="#c7133e" style="fill: var(--color7, #c7133e)" d="M18 16c0 1.105-0.895 2-2 2s-2-0.895-2-2c0-1.105 0.895-2 2-2s2 0.895 2 2z"></path>
<path fill="#c7133e" style="fill: var(--color7, #c7133e)" d="M4 16c0 1.105-0.895 2-2 2s-2-0.895-2-2c0-1.105 0.895-2 2-2s2 0.895 2 2z"></path>
<path fill="#c7133e" style="fill: var(--color7, #c7133e)" d="M32 16c0 1.105-0.895 2-2 2s-2-0.895-2-2c0-1.105 0.895-2 2-2s2 0.895 2 2z"></path>
</symbol>


<symbol id="icon-facebook" viewBox="0 0 16 32">
<path fill="#fff" style="fill: var(--color1, #fff)" d="M14.143 15.971h-4.033v14.865h-6.112v-14.865h-2.906v-5.222h2.906v-3.382c0-2.417 1.142-6.204 6.167-6.204l4.527 0.019v5.072h-3.284c-0.538 0-1.297 0.272-1.297 1.425v3.073h4.567l-0.534 5.219z"></path>
</symbol>
<symbol id="icon-github" viewBox="0 0 32 32">
<path fill="#fff" style="fill: var(--color1, #fff)" d="M16 0c-8.789 0-16 7.211-16 16 0 7.499 5.262 14.312 12.25 16v-5.293c-0.276 0.070-0.593 0.109-0.919 0.109-0.398 0-0.781-0.059-1.143-0.169l0.028 0.007c-0.946-0.278-1.714-0.909-2.285-1.869-0.363-0.613-1.008-1.28-1.68-1.23l-0.165-1.867c1.454-0.125 2.71 0.886 3.456 2.139 0.333 0.558 0.715 0.885 1.205 1.029 0.472 0.141 0.981 0.074 1.573-0.136 0.149-1.186 0.693-1.629 1.104-2.256-4.168-0.621-5.829-2.832-6.488-4.576-0.874-2.318-0.405-5.213 1.139-7.043 0.030-0.035 0.085-0.128 0.064-0.192-0.709-2.141 0.154-3.91 0.186-4.098 0.818 0.24 0.95-0.243 3.552 1.336l0.448 0.27c0.189 0.112 0.128 0.048 0.317 0.032 1.003-0.282 2.157-0.452 3.349-0.469l0.010-0c1.136 0.014 2.272 0.176 3.403 0.483l0.146 0.016c-0.013-0.003 0.040-0.010 0.128-0.062 3.248-1.968 3.131-1.325 4.003-1.608 0.032 0.189 0.882 1.987 0.182 4.099-0.096 0.291 2.816 2.957 1.202 7.235-0.659 1.744-2.32 3.957-6.486 4.578 0.534 0.816 1.176 1.248 1.173 2.928v6.606c6.986-1.688 12.25-8.501 12.25-16 0-8.789-7.211-16-16-16z"></path>
</symbol>
<symbol id="icon-telegram" viewBox="0 0 44 32">
<path fill="#fff" style="fill: var(--color1, #fff)" d="M17.344 21.048l-0.676 8.86c0.966 0 1.384-0.388 1.886-0.852l4.526-4.040 9.38 6.414c1.722 0.894 2.934 0.422 3.4-1.478l6.156-26.932c0.548-2.374-0.92-3.302-2.594-2.72l-36.194 12.934c-2.47 0.896-2.434 2.18-0.42 2.766l9.252 2.684 21.492-12.552c1.012-0.626 1.932-0.28 1.176 0.346l-17.386 14.57z"></path>
</symbol>
<symbol id="icon-right" viewBox="0 0 22 32">
<path fill="none" stroke="#d41443" style="stroke: var(--color1, #d41443)" stroke-linejoin="round" stroke-linecap="round" stroke-miterlimit="4" stroke-width="6.4" d="M5.040 3.2l13.226 12.8-13.226 12.8"></path>
</symbol>
<symbol id="icon-hrdots-center" viewBox="0 0 192 32">
<path fill="#d9d9d9" style="fill: var(--color1, #d9d9d9)" d="M32 16c0 8.837-7.163 16-16 16s-16-7.163-16-16c0-8.837 7.163-16 16-16s16 7.163 16 16z"></path>
<path fill="#d31342" style="fill: var(--color2, #d31342)" d="M111.467 16.8c0.533-0.533 0.533-1.6 0-2.133l-14.4-11.733c-0.533-0.533-1.6-0.533-2.4 0l-14.4 12.267c-0.533 0.533-0.533 1.333 0 2.133l0.267 0.267c0.533 0.533 1.6 0.533 2.133 0.267l1.067-0.8v13.067c0 0.8 0.8 1.333 1.6 1.333h5.6c0.8 0 1.6-0.533 1.6-1.333v-9.333h7.2v9.067c0 0.8 0.533 1.333 1.333 1.333h5.867c0.8 0 1.6-0.533 1.6-1.333v-12.8c0 0 0.267 0.267 0.533 0.533s1.067 0 1.6-0.533l0.8-0.267z"></path>
<path fill="#d9d9d9" style="fill: var(--color1, #d9d9d9)" d="M192 16c0 8.837-7.163 16-16 16s-16-7.163-16-16c0-8.837 7.163-16 16-16s16 7.163 16 16z"></path>
</symbol>
<symbol id="icon-hrdots-right" viewBox="0 0 192 32">
<path fill="#d9d9d9" style="fill: var(--color1, #d9d9d9)" d="M32 16c0 8.837-7.163 16-16 16s-16-7.163-16-16c0-8.837 7.163-16 16-16s16 7.163 16 16z"></path>
<path fill="#d31342" style="fill: var(--color2, #d31342)" d="M191.467 16.8c0.533-0.533 0.533-1.6 0-2.133l-14.4-11.733c-0.533-0.533-1.6-0.533-2.4 0l-14.4 12.267c-0.533 0.533-0.533 1.333 0 2.133l0.267 0.267c0.533 0.533 1.6 0.533 2.133 0.267l1.067-0.8v13.067c0 0.8 0.8 1.333 1.6 1.333h5.6c0.8 0 1.6-0.533 1.6-1.333v-9.333h7.2v9.067c0 0.8 0.533 1.333 1.333 1.333h5.867c0.8 0 1.6-0.533 1.6-1.333v-12.8c0 0 0.267 0.267 0.533 0.533s1.067 0 1.6-0.533l0.8-0.267z"></path>
<path fill="#d9d9d9" style="fill: var(--color1, #d9d9d9)" d="M112 16c0 8.837-7.163 16-16 16s-16-7.163-16-16c0-8.837 7.163-16 16-16s16 7.163 16 16z"></path>
</symbol>

<!-- Jorge y Raul -->

</symbol>
<symbol id="arrowred" viewBox="0 0 10 15">
<path d="M1 1L5 5L1 9" stroke="#D41443" stroke-width="2" stroke-linecap="round" stroke-linejoin="round"/>
</symbol>

<symbol id="icon-16" viewBox="0 0 31 32">
<path fill="#fff" style="fill: var(--color1, #fff)" d="M19.636 5.818c0 3.213 2.605 5.818 5.818 5.818s5.818-2.605 5.818-5.818c0-3.213-2.605-5.818-5.818-5.818s-5.818 2.605-5.818 5.818z"></path>
<path fill="#d41443" style="fill: var(--color2, #d41443)" d="M8.885 20.602c0 0.149-0.414 0.271-1.242 0.367-0.828 0.081-1.656 0.122-2.484 0.122s-1.364-0.034-1.609-0.102c-0.231-0.081-0.346-0.21-0.346-0.387v-8.797h-2.077c-0.231 0-0.346-0.495-0.346-1.487s0.115-1.887 0.346-2.688c0.068-0.258 0.787-0.495 2.159-0.713s2.423-0.326 3.156-0.326c0.733 0 1.222 0.027 1.466 0.081s0.428 0.122 0.55 0.204c0.122 0.068 0.217 0.149 0.285 0.244 0.095 0.149 0.143 0.292 0.143 0.428v13.053zM16.809 12.192c0.122-0.109 0.448-0.251 0.977-0.428s1.127-0.265 1.792-0.265c0.679 0 1.249 0.102 1.711 0.305 0.475 0.19 0.842 0.434 1.1 0.733 0.272 0.299 0.482 0.672 0.631 1.12 0.244 0.733 0.367 1.48 0.367 2.24s-0.034 1.337-0.102 1.731c-0.054 0.38-0.204 0.808-0.448 1.283-0.231 0.475-0.55 0.876-0.957 1.201-0.394 0.326-0.964 0.604-1.711 0.835-0.733 0.217-1.595 0.326-2.586 0.326-2.131 0-3.74-0.584-4.826-1.751-1.086-1.181-1.629-3.082-1.629-5.702 0-2.634 0.509-4.527 1.527-5.681 1.018-1.168 2.566-1.751 4.643-1.751 1.425 0 2.661 0.109 3.706 0.326 1.059 0.204 1.588 0.448 1.588 0.733 0 0.353-0.136 0.971-0.407 1.853-0.258 0.882-0.495 1.324-0.713 1.324-0.068 0-0.271-0.034-0.611-0.102-0.923-0.19-1.765-0.285-2.525-0.285s-1.249 0.19-1.466 0.57c-0.217 0.367-0.326 0.91-0.326 1.629 0.054-0.068 0.143-0.149 0.265-0.244zM17.257 14.025c-0.394 0-0.591 0.733-0.591 2.199 0 1.453 0.197 2.179 0.591 2.179 0.421 0 0.631-0.726 0.631-2.179 0-1.466-0.21-2.199-0.631-2.199z"></path>
<path fill="#fff" style="fill: var(--color1, #fff)" d="M11.217 30.615c-0.275 0-0.524-0.062-0.745-0.186-0.217-0.128-0.39-0.305-0.518-0.529-0.124-0.229-0.186-0.495-0.186-0.797s0.062-0.566 0.186-0.791c0.128-0.229 0.301-0.405 0.518-0.529 0.221-0.128 0.469-0.192 0.745-0.192 0.341 0 0.628 0.089 0.861 0.268 0.237 0.178 0.386 0.417 0.448 0.716h-0.5c-0.039-0.178-0.134-0.316-0.285-0.413-0.151-0.101-0.328-0.151-0.529-0.151-0.163 0-0.316 0.041-0.46 0.122s-0.26 0.204-0.349 0.367c-0.089 0.163-0.134 0.365-0.134 0.605s0.045 0.442 0.134 0.605c0.089 0.163 0.206 0.287 0.349 0.372 0.143 0.081 0.297 0.122 0.46 0.122 0.202 0 0.378-0.049 0.529-0.145 0.151-0.101 0.246-0.242 0.285-0.425h0.5c-0.058 0.291-0.206 0.527-0.442 0.71s-0.526 0.273-0.867 0.273zM14.168 30.615c-0.241 0-0.44-0.041-0.599-0.122s-0.277-0.19-0.355-0.326c-0.078-0.136-0.116-0.283-0.116-0.442 0-0.295 0.112-0.522 0.337-0.681s0.531-0.239 0.919-0.239h0.78v-0.035c0-0.252-0.066-0.442-0.198-0.57-0.132-0.132-0.308-0.198-0.529-0.198-0.19 0-0.355 0.049-0.495 0.145-0.136 0.093-0.221 0.231-0.256 0.413h-0.5c0.019-0.209 0.089-0.386 0.209-0.529 0.124-0.143 0.277-0.252 0.46-0.326 0.182-0.078 0.376-0.116 0.582-0.116 0.403 0 0.706 0.109 0.908 0.326 0.206 0.213 0.308 0.498 0.308 0.855v1.775h-0.436l-0.029-0.518c-0.081 0.163-0.202 0.303-0.361 0.419-0.155 0.113-0.365 0.169-0.628 0.169zM14.244 30.202c0.186 0 0.345-0.049 0.477-0.145 0.136-0.097 0.239-0.223 0.308-0.378s0.105-0.318 0.105-0.489v-0.006h-0.739c-0.287 0-0.491 0.050-0.611 0.151-0.116 0.097-0.175 0.219-0.175 0.367 0 0.151 0.054 0.273 0.163 0.367 0.112 0.089 0.27 0.134 0.471 0.134zM16.513 30.545v-2.473h-0.436v-0.413h0.436v-0.5c0-0.279 0.070-0.483 0.209-0.611s0.343-0.192 0.611-0.192h0.291v0.419h-0.215c-0.147 0-0.252 0.031-0.314 0.093-0.062 0.058-0.093 0.159-0.093 0.303v0.489h0.71v0.413h-0.71v2.473h-0.489zM19.477 30.615c-0.275 0-0.52-0.062-0.733-0.186-0.213-0.128-0.382-0.305-0.506-0.529-0.12-0.225-0.18-0.491-0.18-0.797 0-0.303 0.060-0.566 0.18-0.791 0.12-0.229 0.287-0.405 0.5-0.529 0.217-0.128 0.467-0.192 0.751-0.192 0.279 0 0.52 0.064 0.721 0.192 0.206 0.124 0.363 0.289 0.471 0.495s0.163 0.427 0.163 0.663c0 0.043-0.002 0.085-0.006 0.128 0 0.043 0 0.091 0 0.145h-2.298c0.012 0.221 0.062 0.405 0.151 0.553 0.093 0.143 0.207 0.252 0.343 0.326 0.14 0.074 0.287 0.111 0.442 0.111 0.202 0 0.37-0.047 0.506-0.14s0.235-0.219 0.297-0.378h0.483c-0.078 0.268-0.227 0.491-0.448 0.669-0.217 0.175-0.497 0.262-0.838 0.262zM19.477 28.003c-0.233 0-0.44 0.072-0.623 0.215-0.178 0.14-0.281 0.345-0.308 0.617h1.815c-0.012-0.26-0.101-0.463-0.268-0.611s-0.372-0.221-0.617-0.221zM22.598 30.615c-0.345 0-0.632-0.087-0.861-0.262s-0.363-0.411-0.401-0.71h0.5c0.031 0.151 0.111 0.283 0.239 0.396 0.132 0.109 0.308 0.163 0.529 0.163 0.206 0 0.357-0.043 0.454-0.128 0.097-0.089 0.145-0.194 0.145-0.314 0-0.175-0.064-0.291-0.192-0.349-0.124-0.058-0.301-0.111-0.529-0.157-0.155-0.031-0.31-0.076-0.465-0.134s-0.285-0.14-0.39-0.244c-0.105-0.109-0.157-0.25-0.157-0.425 0-0.252 0.093-0.458 0.279-0.617 0.19-0.163 0.446-0.244 0.768-0.244 0.306 0 0.557 0.078 0.751 0.233 0.198 0.151 0.312 0.369 0.343 0.652h-0.483c-0.019-0.147-0.083-0.262-0.192-0.343-0.105-0.085-0.246-0.128-0.425-0.128-0.175 0-0.31 0.037-0.407 0.111-0.093 0.074-0.14 0.171-0.14 0.291 0 0.116 0.060 0.207 0.18 0.273 0.124 0.066 0.291 0.122 0.5 0.169 0.178 0.039 0.347 0.087 0.506 0.145 0.163 0.054 0.295 0.138 0.396 0.25 0.105 0.109 0.157 0.268 0.157 0.477 0.004 0.26-0.095 0.475-0.297 0.646-0.198 0.167-0.467 0.25-0.809 0.25z"></path>
</symbol>

<symbol id="icon-23" viewBox="0 0 38 32">
<path fill="#fff" style="fill: var(--color1, #fff)" d="M26.047 5.954c0 3.288 2.665 5.954 5.953 5.954s5.953-2.665 5.953-5.954c0-3.288-2.665-5.954-5.953-5.954s-5.953 2.665-5.953 5.954z"></path>
<path fill="#d41443" style="fill: var(--color2, #d41443)" d="M7.732 11.44c-0.389 0-0.729-0.458-1.021-1.375-0.278-0.917-0.417-1.799-0.417-2.646 0-0.194 0.215-0.41 0.646-0.646 0.431-0.25 1.084-0.472 1.959-0.667s1.827-0.292 2.855-0.292c3.987 0 5.98 1.396 5.98 4.188 0 0.778-0.167 1.507-0.5 2.188s-0.702 1.229-1.104 1.646c-0.403 0.403-0.875 0.778-1.417 1.125-0.625 0.389-1.222 0.695-1.792 0.917h4.167c0.083 0 0.174 0.042 0.271 0.125 0.097 0.069 0.201 0.292 0.313 0.667 0.111 0.361 0.167 0.82 0.167 1.375 0 0.542-0.035 1-0.104 1.375-0.070 0.361-0.153 0.625-0.25 0.792-0.208 0.375-0.396 0.577-0.563 0.604l-0.104 0.021h-9.127c-0.875 0-1.313-1.368-1.313-4.105 0-0.306 0.903-1.146 2.709-2.521 0.681-0.5 1.306-1.049 1.875-1.646s0.854-1.084 0.854-1.459c0-0.417-0.313-0.625-0.938-0.625s-1.285 0.16-1.98 0.479c-0.681 0.319-1.070 0.479-1.167 0.479zM31.18 9.71c0 1.403-0.556 2.452-1.667 3.146 0.153 0.069 0.347 0.236 0.583 0.5 0.25 0.264 0.458 0.528 0.625 0.792 0.431 0.681 0.646 1.486 0.646 2.417 0 1.528-0.549 2.653-1.646 3.376s-2.605 1.084-4.522 1.084c-0.945 0-1.841-0.076-2.688-0.229-0.834-0.167-1.473-0.347-1.917-0.542-0.445-0.208-0.667-0.396-0.667-0.563 0-0.764 0.083-1.438 0.25-2.021s0.354-0.993 0.563-1.229c0.208-0.25 0.41-0.375 0.604-0.375 0.056 0 0.424 0.125 1.104 0.375s1.348 0.375 2 0.375c0.667 0 1-0.208 1-0.625 0-0.57-0.702-0.875-2.105-0.917-0.556-0.014-0.861-0.028-0.917-0.042-0.292-0.097-0.438-0.708-0.438-1.834s0.146-1.743 0.438-1.854c0.056-0.028 0.361-0.042 0.917-0.042 1.403-0.028 2.105-0.313 2.105-0.854 0-0.417-0.306-0.625-0.917-0.625-0.597 0-1.264 0.146-2 0.438s-1.139 0.438-1.209 0.438c-0.319 0-0.611-0.465-0.875-1.396s-0.396-1.591-0.396-1.98c0-0.361 0.403-0.729 1.209-1.104 0.889-0.403 2.195-0.604 3.917-0.604 4.001 0 6.001 1.299 6.001 3.897z"></path>
<path fill="#fff" style="fill: var(--color1, #fff)" d="M1.275 30.512v-2.53h-0.447v-0.423h0.447v-0.512c0-0.286 0.071-0.494 0.214-0.625s0.351-0.196 0.625-0.196h0.298v0.429h-0.22c-0.151 0-0.258 0.032-0.321 0.095-0.063 0.060-0.095 0.163-0.095 0.31v0.5h0.726v0.423h-0.726v2.53h-0.5zM4.326 30.583c-0.278 0-0.528-0.063-0.75-0.191s-0.399-0.306-0.53-0.536c-0.127-0.234-0.191-0.508-0.191-0.822s0.066-0.585 0.196-0.816c0.131-0.234 0.308-0.415 0.53-0.542 0.226-0.127 0.478-0.191 0.756-0.191s0.528 0.063 0.75 0.191c0.222 0.127 0.397 0.308 0.524 0.542 0.131 0.23 0.196 0.502 0.196 0.816s-0.066 0.587-0.196 0.822c-0.131 0.23-0.31 0.409-0.536 0.536-0.222 0.127-0.472 0.191-0.75 0.191zM4.326 30.154c0.171 0 0.329-0.042 0.476-0.125s0.266-0.208 0.357-0.375c0.091-0.167 0.137-0.373 0.137-0.619s-0.046-0.452-0.137-0.619c-0.087-0.167-0.204-0.292-0.351-0.375s-0.304-0.125-0.47-0.125c-0.171 0-0.329 0.042-0.476 0.125s-0.266 0.208-0.357 0.375c-0.091 0.167-0.137 0.373-0.137 0.619s0.046 0.452 0.137 0.619c0.091 0.167 0.208 0.292 0.351 0.375 0.147 0.083 0.304 0.125 0.47 0.125zM7.849 30.583c-0.278 0-0.528-0.063-0.75-0.191s-0.399-0.306-0.53-0.536c-0.127-0.234-0.191-0.508-0.191-0.822s0.066-0.585 0.196-0.816c0.131-0.234 0.308-0.415 0.53-0.542 0.226-0.127 0.478-0.191 0.756-0.191s0.528 0.063 0.75 0.191c0.222 0.127 0.397 0.308 0.524 0.542 0.131 0.23 0.196 0.502 0.196 0.816s-0.066 0.587-0.196 0.822c-0.131 0.23-0.31 0.409-0.536 0.536-0.222 0.127-0.472 0.191-0.75 0.191zM7.849 30.154c0.171 0 0.329-0.042 0.476-0.125s0.266-0.208 0.357-0.375c0.091-0.167 0.137-0.373 0.137-0.619s-0.046-0.452-0.137-0.619c-0.087-0.167-0.204-0.292-0.351-0.375s-0.304-0.125-0.47-0.125c-0.171 0-0.329 0.042-0.476 0.125s-0.266 0.208-0.357 0.375c-0.091 0.167-0.137 0.373-0.137 0.619s0.046 0.452 0.137 0.619c0.091 0.167 0.208 0.292 0.351 0.375 0.147 0.083 0.304 0.125 0.47 0.125zM11.367 30.583c-0.294 0-0.552-0.067-0.774-0.202-0.218-0.135-0.389-0.319-0.512-0.554-0.119-0.234-0.179-0.5-0.179-0.798s0.061-0.562 0.185-0.792c0.123-0.234 0.294-0.417 0.512-0.548 0.218-0.135 0.476-0.202 0.774-0.202 0.242 0 0.456 0.050 0.643 0.149s0.331 0.238 0.435 0.417v-1.828h0.5v4.287h-0.452l-0.048-0.488c-0.095 0.143-0.232 0.272-0.411 0.387s-0.403 0.173-0.673 0.173zM11.42 30.148c0.198 0 0.373-0.046 0.524-0.137 0.155-0.095 0.274-0.226 0.357-0.393 0.087-0.167 0.131-0.361 0.131-0.583s-0.044-0.417-0.131-0.583c-0.083-0.167-0.202-0.296-0.357-0.387-0.151-0.095-0.325-0.143-0.524-0.143-0.195 0-0.369 0.048-0.524 0.143-0.151 0.091-0.27 0.22-0.357 0.387-0.083 0.167-0.125 0.361-0.125 0.583s0.042 0.417 0.125 0.583c0.087 0.167 0.206 0.298 0.357 0.393 0.155 0.091 0.329 0.137 0.524 0.137zM16.508 30.512c-0.27 0-0.482-0.066-0.637-0.196s-0.232-0.367-0.232-0.708v-1.625h-0.512v-0.423h0.512l0.066-0.708h0.435v0.708h0.869v0.423h-0.869v1.625c0 0.187 0.038 0.314 0.113 0.381 0.075 0.063 0.208 0.095 0.399 0.095h0.31v0.429h-0.452zM17.643 30.512v-2.953h0.452l0.042 0.566c0.091-0.194 0.23-0.349 0.417-0.464s0.417-0.173 0.691-0.173v0.524h-0.137c-0.175 0-0.335 0.032-0.482 0.095-0.147 0.060-0.264 0.163-0.351 0.31s-0.131 0.349-0.131 0.607v1.488h-0.5zM22.39 27.559v2.953h-0.452l-0.030-0.53c-0.095 0.187-0.232 0.333-0.411 0.441s-0.381 0.161-0.607 0.161c-0.349 0-0.629-0.105-0.839-0.316-0.206-0.214-0.31-0.542-0.31-0.982v-1.727h0.5v1.673c0 0.615 0.254 0.923 0.762 0.923 0.254 0 0.464-0.091 0.631-0.274 0.171-0.187 0.256-0.45 0.256-0.792v-1.53h0.5zM24.57 30.583c-0.282 0-0.536-0.063-0.762-0.191-0.222-0.131-0.399-0.312-0.53-0.542-0.127-0.234-0.191-0.506-0.191-0.816s0.064-0.579 0.191-0.81c0.131-0.234 0.308-0.415 0.53-0.542 0.226-0.131 0.48-0.196 0.762-0.196 0.349 0 0.643 0.091 0.881 0.274 0.242 0.183 0.395 0.427 0.458 0.732h-0.512c-0.040-0.183-0.137-0.323-0.292-0.423-0.155-0.103-0.335-0.155-0.542-0.155-0.167 0-0.323 0.042-0.47 0.125s-0.266 0.208-0.357 0.375c-0.091 0.167-0.137 0.373-0.137 0.619s0.046 0.452 0.137 0.619c0.091 0.167 0.21 0.294 0.357 0.381 0.147 0.083 0.304 0.125 0.47 0.125 0.206 0 0.387-0.050 0.542-0.149 0.155-0.103 0.252-0.248 0.292-0.435h0.512c-0.060 0.298-0.21 0.54-0.452 0.726s-0.538 0.28-0.887 0.28zM26.608 30.512v-4.287h0.5v2.578l1.209-1.244h0.613l-1.31 1.334 1.476 1.619h-0.637l-1.351-1.53v1.53h-0.5zM30.565 30.583c-0.353 0-0.647-0.089-0.881-0.268s-0.371-0.421-0.411-0.726h0.512c0.032 0.155 0.113 0.29 0.244 0.405 0.135 0.111 0.316 0.167 0.542 0.167 0.21 0 0.365-0.044 0.464-0.131 0.099-0.091 0.149-0.198 0.149-0.322 0-0.179-0.066-0.298-0.196-0.357-0.127-0.060-0.308-0.113-0.542-0.161-0.159-0.032-0.318-0.077-0.476-0.137s-0.292-0.143-0.399-0.25c-0.107-0.111-0.161-0.256-0.161-0.435 0-0.258 0.095-0.468 0.286-0.631 0.194-0.167 0.456-0.25 0.786-0.25 0.314 0 0.57 0.079 0.768 0.238 0.202 0.155 0.319 0.377 0.351 0.667h-0.494c-0.020-0.151-0.085-0.268-0.196-0.351-0.107-0.087-0.252-0.131-0.435-0.131-0.179 0-0.318 0.038-0.417 0.113-0.095 0.075-0.143 0.175-0.143 0.298 0 0.119 0.062 0.212 0.185 0.28 0.127 0.067 0.298 0.125 0.512 0.173 0.183 0.040 0.355 0.089 0.518 0.149 0.167 0.056 0.302 0.141 0.405 0.256 0.107 0.111 0.161 0.274 0.161 0.488 0.004 0.266-0.097 0.486-0.304 0.661-0.202 0.171-0.478 0.256-0.828 0.256z"></path>
</symbol>

<symbol id="icon-ellipse-cone" viewBox="0 0 32 32">
<path fill="#ffa5ba" style="fill: var(--color1, #ffa5ba)" d="M32 16c0 8.837-7.163 16-16 16s-16-7.163-16-16c0-8.837 7.163-16 16-16s16 7.163 16 16z"></path>
</symbol>

<symbol id="icon-logo-ice" viewBox="0 0 127 32">
<path fill="#fff" style="fill: var(--color1, #fff)" d="M31.36 16.32c0 8.66-6.877 15.68-15.36 15.68s-15.36-7.020-15.36-15.68c0-8.66 6.877-15.68 15.36-15.68s15.36 7.020 15.36 15.68z"></path>
<path fill="#d41443" style="fill: var(--color2, #d41443)" d="M11.849 0.561c-7.405 2.243-11.849 8.074-11.849 15.442 0 6.022 3.091 11.277 8.179 13.904 2.64 1.345 3.027 0.384 0.579-1.474-1.738-1.409-2.061-2.050-2.061-4.421 0-1.666-0.386-3.011-0.966-3.524-1.158-0.961-1.288-3.46-0.128-4.357 0.45-0.384 0.901-1.666 0.965-2.819 0.323-4.228 4.895-8.201 9.467-8.201s9.144 3.972 9.466 8.201c0.064 1.153 0.515 2.435 0.966 2.819 1.158 0.897 1.030 3.396-0.129 4.357-0.579 0.513-0.966 1.858-0.966 3.524 0 2.371-0.321 3.012-2.060 4.421-2.705 2.115-1.932 2.883 1.094 1.025 4.251-2.627 7.406-8.33 7.406-13.391 0-10.124-10.561-18.325-19.964-15.506z"></path>
<path fill="#d41443" style="fill: var(--color2, #d41443)" d="M12.687 7.994c-1.16 0.513-2.125 1.154-2.125 1.538 0 0.705 3.478 1.987 5.474 1.987s5.474-1.281 5.474-1.987c0-0.768-3.993-2.499-5.603-2.499-0.644 0.064-2.125 0.448-3.22 0.961zM45.851 11.326c-0.966 0.256-1.158 1.089-1.158 5.702v5.382h4.572l-0.193-5.574c-0.193-5.83-0.451-6.28-3.22-5.51zM53.386 11.646c-2.125 1.154-2.898 2.563-2.898 5.318 0 3.78 2.061 5.574 5.86 5.318 2.576-0.192 2.833-0.385 3.027-1.987s0.064-1.73-1.932-1.602c-2.061 0.192-2.125 0.064-2.125-2.051s0.129-2.243 1.997-2.050c1.545 0.128 2.125-0.128 2.382-1.089 0.129-0.641 0-1.538-0.387-1.923-0.901-0.897-4.25-0.897-5.924 0.064zM61.050 11.71c-0.194 0.513-0.258 3.012-0.129 5.638l0.193 4.742h4.186c3.864 0 4.186-0.128 4.379-1.474 0.193-1.217-0.064-1.409-2.060-1.409-1.288 0-2.319-0.32-2.319-0.641 0-0.385 0.902-0.641 1.932-0.641 1.481 0 1.932-0.256 1.932-1.281s-0.451-1.281-1.932-1.281c-1.030 0-1.932-0.32-1.932-0.641 0-0.385 0.837-0.641 1.868-0.641 1.804 0 3.027-1.409 2.254-2.627-0.58-0.961-7.985-0.705-8.371 0.256zM73.993 11.518c-2.125 0.833-2.962 2.307-3.027 4.998-0.065 4.613 1.803 6.215 6.633 5.766 1.868-0.128 2.189-0.448 2.189-1.794 0-1.409-0.257-1.602-2.061-1.409-1.546 0.128-2.125-0.064-2.447-1.089-0.58-1.987 0.644-3.588 2.705-3.588 1.224 0 1.868-0.384 1.996-1.217 0.451-2.051-2.833-3.011-5.989-1.666zM81.914 11.262c-0.323 0.256-0.515 2.883-0.515 5.83v5.382l2.060-0.192c1.61-0.128 2.19-0.577 2.512-1.795l0.386-1.602 0.515 1.73c0.387 1.474 0.837 1.795 2.512 1.795 2.769 0 3.091-0.449 1.932-2.691-0.708-1.41-0.837-2.115-0.322-2.627 0.837-0.833 0.902-3.652 0.129-4.87-0.644-1.025-8.371-1.858-9.208-0.961zM87.194 14.722c0 0.705-0.257 1.281-0.644 1.281-0.322 0-0.644-0.576-0.644-1.281s0.322-1.282 0.644-1.282c0.387 0 0.644 0.577 0.644 1.282zM93.441 11.326c-0.258 0.192-0.451 2.819-0.451 5.766v5.318h4.186c4.057 0 4.186-0.064 4.186-1.602 0-1.346-0.322-1.602-1.932-1.602-1.030 0-1.932-0.32-1.932-0.641 0-0.385 0.708-0.641 1.61-0.641 1.159 0 1.61-0.321 1.61-1.282s-0.451-1.281-1.61-1.281c-0.902 0-1.61-0.32-1.61-0.641 0-0.384 0.902-0.641 1.932-0.641 1.61 0 1.932-0.256 1.932-1.602 0-1.538-0.193-1.602-3.735-1.602-2.061 0-3.992 0.192-4.186 0.448zM106.45 11.262c-1.16 0.32-4.122 8.842-3.542 10.252 0.515 1.281 3.413 1.153 4.186-0.192 0.579-1.089 0.644-1.089 1.803 0 1.482 1.281 4.701 1.474 4.701 0.256 0-0.384-0.644-2.947-1.482-5.574-1.288-4.228-1.674-4.805-3.027-4.933-0.902 0-2.061 0.064-2.64 0.192zM108.253 17.092c-0.193 0.641-0.322 0.256-0.322-0.769 0-1.089 0.129-1.538 0.322-1.153 0.129 0.448 0.129 1.345 0 1.922zM115.723 11.326c-0.58 0.192-0.837 1.986-0.837 5.702v5.382h1.868c1.61 0 1.932-0.321 2.189-1.795 0.257-1.666 0.257-1.666 0.772-0.32 0.258 0.833 0.902 1.474 1.352 1.474 0.515 0 1.224-0.641 1.546-1.474 0.515-1.346 0.58-1.346 0.58 0.384 0.065 1.602 0.257 1.795 2.061 1.602l1.996-0.192 0.065-5.318c0.129-4.933 0.064-5.318-1.288-5.638-2.061-0.512-3.799 0.705-4.379 3.076l-0.451 2.115-0.708-2.243c-0.902-3.012-2.254-3.78-4.765-2.755zM9.016 11.967c-0.193 0.256-0.387 1.089-0.387 1.922 0 1.474 0.064 1.474 7.406 1.474 7.341 0 7.405 0 7.405-1.474 0-2.179-0.579-2.435-2.64-1.409-2.319 1.217-7.213 1.217-9.531 0-1.030-0.513-1.997-0.705-2.254-0.513zM7.148 17.669c-1.030 1.089 0.708 1.538 5.731 1.538h5.409v2.243c0 1.217 0.322 2.243 0.644 2.243 0.386 0 0.644-0.961 0.644-2.179 0-2.115 0.129-2.243 2.576-2.435 1.416-0.128 2.576-0.512 2.576-0.832 0-0.705-16.872-1.282-17.581-0.577z"></path>
<path fill="#d41443" style="fill: var(--color2, #d41443)" d="M8.629 23.308c0 3.524 1.224 4.229 7.406 4.229s7.405-0.705 7.405-4.229c0-1.538-0.322-2.179-0.966-2.179-0.579 0-0.965 0.577-0.965 1.538 0 3.588-4.895 3.908-5.603 0.384-0.322-1.858-0.515-1.922-3.799-1.922h-3.478v2.179zM12.622 30.548c0.387 2.051 6.955 1.859 6.955-0.128 0-0.705-0.837-0.961-3.606-0.961-3.027 0-3.542 0.192-3.348 1.089z"></path>
</symbol>

<symbol id="icon-Ellipse-1" viewBox="0 0 32 32">
<path fill="#fff" style="fill: var(--color1, #fff)" d="M32 16c0 8.837-7.163 16-16 16s-16-7.163-16-16c0-8.837 7.163-16 16-16s16 7.163 16 16z"></path>
</symbol>

</defs>
</svg>



